<?xml version="1.0" encoding="utf-8"?>
<!DOCTYPE svg PUBLIC "-//W3C//DTD SVG 1.0//EN" "http://www.w3.org/TR/2001/REC-SVG-20010904/DTD/svg10.dtd">
<svg version="1.0" xmlns="http://www.w3.org/2000/svg" width="1024px" height="1024px" viewBox="200 200 600 600" preserveAspectRatio="xMidYMid meet">
 <g fill="#333463">
  <path d="M437.50 779.15 c-6.60 -0.65 -14 -2.50 -18.75 -4.65 -6.40 -2.90 -11 -6.15 -17.05 -12.20 -5.95 -5.95 -10.20 -11.70 -14.85 -20 -1.10 -1.95 -2.65 -4.80 -3.50 -6.30 -4.65 -8.30 -7.40 -11.40 -12.20 -13.60 -2.70 -1.20 -3.75 -1.40 -7.50 -1.40 -5.20 0.05 -7.50 0.55 -17.15 3.85 -24.55 8.45 -26 8.90 -35.50 10.60 -3.50 0.60 -15.25 0.65 -17.25 0.05 -0.80 -0.20 -2.75 -0.70 -4.25 -1 -9 -1.95 -20.90 -8.35 -27.25 -14.75 -4.80 -4.80 -9.55 -11.55 -11.85 -16.70 -2.40 -5.50 -2.40 -5.45 -3.90 -11.30 -0.75 -2.95 -0.60 -15.35 0.25 -20.25 1.05 -6.20 2.50 -11.40 4.30 -15.35 0.50 -1.20 0.95 -2.25 0.95 -2.40 0 -0.15 2.05 -4.45 4.55 -9.65 2.50 -5.15 5.95 -12.25 7.70 -15.85 2.90 -6.10 3.70 -7.75 6.25 -13.50 0.55 -1.25 1.45 -3.20 1.95 -4.35 1.55 -3.50 5.35 -12.50 6 -14.40 0.60 -1.65 0.85 -2.20 2 -5.10 0.25 -0.65 0.90 -2.40 1.45 -3.90 0.55 -1.50 1.40 -3.75 1.85 -5 1.10 -2.95 4.75 -13.85 5.25 -15.75 0.25 -0.80 1.10 -3.85 1.95 -6.75 3.10 -10.50 6.70 -25.85 9.10 -38.75 0.55 -3 1.20 -6.60 1.45 -7.90 0.30 -1.30 0.50 -3.25 0.50 -4.35 0 -1.05 0.20 -2.05 0.45 -2.20 0.20 -0.15 0.55 -2 0.75 -4.15 0.15 -2.15 0.55 -5.70 0.80 -7.90 0.25 -2.20 0.60 -5.70 0.75 -7.75 0.15 -2.05 0.45 -6 0.75 -8.75 1.05 -10.30 1.50 -19.85 1.50 -32.25 0 -8 0.30 -15.55 0.80 -20.25 0.45 -4.10 0.95 -9.30 1.20 -11.50 0.20 -2.20 0.65 -5.70 1 -7.75 0.30 -2.05 0.75 -5 0.95 -6.50 1.35 -9 5.60 -26.10 9.30 -37.25 3.90 -11.75 12 -29.10 18.75 -40.25 3.40 -5.60 10.50 -16.10 11.50 -17 0.15 -0.15 1.05 -1.25 2 -2.50 8.15 -10.50 23.95 -26.05 34.25 -33.65 1.40 -1 2.75 -2.05 3 -2.25 1.10 -0.90 12.75 -8.60 13 -8.60 0.15 0 1.90 -1 3.90 -2.20 12.15 -7.40 33.75 -16.10 49.05 -19.80 12.50 -3 16.90 -3.90 25.80 -5.05 17.75 -2.25 44.45 -2.25 60.25 0.05 6.80 0.95 14.70 2.30 17.50 2.95 1.10 0.25 3.15 0.70 4.50 1 6.50 1.40 19.20 5.10 22.50 6.55 0.55 0.20 3.10 1.25 5.70 2.25 19.75 7.65 41.25 20.55 56.30 33.80 6 5.25 17.70 17.35 21.25 21.95 0.95 1.25 1.85 2.35 2 2.50 0.15 0.15 1.05 1.25 2 2.50 0.95 1.25 1.90 2.50 2.15 2.75 6.40 8.25 11.80 17.15 18 29.70 4.90 9.85 5.80 11.85 7.75 17.05 6.85 18.30 10.85 33.75 13.65 52.50 1.85 12.10 3.05 29.10 2.60 36.35 -0.45 7.70 1.80 43 3.60 56.15 1.65 12.50 3.15 21.50 4.20 26.25 0.30 1.10 0.75 3.45 1.05 5.25 0.35 1.80 0.75 3.80 1 4.50 0.20 0.70 0.70 2.60 1 4.25 0.35 1.65 0.95 4.25 1.35 5.75 0.40 1.50 0.90 3.55 1.15 4.50 0.20 0.95 0.85 3.55 1.50 5.75 0.60 2.20 1.30 4.70 1.50 5.50 2.85 10.25 11 33.30 15.30 43.15 0.40 0.85 1 2.35 1.40 3.25 5.45 12.70 8.10 18.40 16.80 36.10 6.40 13 9.10 19.90 10.75 27.95 0.90 4.30 1 16.75 0.15 20.15 -2.25 9.30 -6.95 18.40 -12.90 24.85 -3.75 4.10 -3.85 4.20 -8.10 7.35 -7.10 5.25 -13.95 8.15 -25.90 11 -6.05 1.40 -17.85 0.75 -26 -1.40 -1.50 -0.40 -3.40 -0.90 -4.25 -1.15 -0.80 -0.20 -1.85 -0.50 -2.25 -0.65 -0.40 -0.20 -4.10 -1.45 -8.25 -2.85 -4.10 -1.40 -7.95 -2.75 -8.50 -3 -1.90 -0.85 -10 -3.40 -12.75 -4 -1.50 -0.30 -3.45 -0.80 -4.30 -1.05 -4.60 -1.40 -12.40 1.35 -16.85 5.85 -1.85 1.95 -8.35 11.60 -8.35 12.50 0 0.10 -1.35 2.50 -3.05 5.30 -7.85 13.20 -16.55 22.55 -26.20 28.05 -11.85 6.80 -24.40 8.55 -37.75 5.30 -9.95 -2.45 -18.80 -7.15 -34.25 -18.20 -15.85 -11.35 -20 -13.35 -27.75 -13.40 -3.85 0 -4.60 0.15 -8 1.75 -3.10 1.45 -11.10 6.70 -12 7.85 -0.15 0.20 -1.25 1.10 -2.50 2.05 -1.25 0.95 -2.80 2.25 -3.50 2.85 -0.70 0.65 -1.40 1.15 -1.55 1.15 -0.15 0 -1.10 0.65 -2 1.50 -0.95 0.80 -1.85 1.50 -2.05 1.50 -0.20 0 -0.65 0.30 -1 0.65 -2.20 2.20 -11.30 7.60 -16.90 10 -6.45 2.80 -17.40 4.60 -24 4z m11.90 -22.85 c2.30 -0.65 10.30 -4.55 11.80 -5.85 0.30 -0.25 1.70 -1.35 3.15 -2.35 1.40 -1.05 3.45 -2.60 4.50 -3.45 10.65 -8.55 13 -10.30 17.50 -13.05 6.40 -3.95 9.70 -5.30 19.45 -8.15 0.85 -0.25 3.35 -0.45 5.60 -0.45 11.30 0 23.05 5 38.25 16.30 10.70 8 17.60 12.50 22.60 14.90 4.80 2.25 7.15 2.80 12.55 2.80 8.85 0 15.85 -3.05 22.75 -9.95 3.50 -3.55 8.80 -11.20 12.45 -18 4.05 -7.50 9.05 -14.70 13.20 -18.85 4.40 -4.40 6.95 -6.30 11.45 -8.35 3.95 -1.85 6.25 -2.40 12.35 -2.90 8.40 -0.65 16.70 0.15 23.10 2.25 1.20 0.40 3.30 1.05 4.65 1.50 1.40 0.40 5.75 1.90 9.75 3.30 16.85 5.95 21 7 27.35 7 4.85 -0.05 8.10 -0.60 12.90 -2.25 9.50 -3.30 17.70 -11.70 20.85 -21.50 0.35 -1.15 0.60 -4.35 0.60 -7.50 0 -7.90 -1.15 -11.35 -9 -27.65 -2.30 -4.80 -4.20 -8.75 -4.20 -8.85 0 -0.10 -1.10 -2.55 -2.50 -5.50 -1.40 -2.95 -2.50 -5.40 -2.50 -5.50 0 -0.10 -0.90 -2.15 -2 -4.60 -1.15 -2.40 -2.25 -4.85 -2.50 -5.40 -2.25 -5.25 -9.65 -23.90 -11.60 -29.25 -0.55 -1.50 -1.20 -3.15 -1.45 -3.60 -0.25 -0.50 -0.45 -1.25 -0.45 -1.65 0 -0.40 -0.20 -1.15 -0.50 -1.65 -0.50 -0.85 -4.75 -13.50 -5.55 -16.35 -0.20 -0.80 -0.85 -3.25 -1.40 -5.35 -0.60 -2.15 -1.50 -5.55 -2 -7.50 -3.35 -12.45 -7.80 -33.45 -9.05 -42.40 -0.30 -2.35 -0.75 -5.05 -1 -6 -0.25 -0.95 -0.65 -3.65 -0.95 -6 -0.30 -2.35 -0.70 -5.35 -0.90 -6.75 -0.15 -1.35 -0.30 -2.65 -0.25 -2.80 0 -0.15 -0.15 -1.75 -0.40 -3.50 -0.70 -4.80 -1.90 -25.15 -2.25 -38.10 -0.40 -16.60 -1.30 -28.80 -2.70 -38.85 -1.15 -8.10 -3.60 -20.85 -5 -26 -0.25 -0.95 -0.95 -3.45 -1.50 -5.50 -1.55 -5.95 -2.80 -10 -4.30 -13.75 -0.75 -1.90 -2.05 -5.30 -2.90 -7.50 -2.70 -7.10 -8.50 -19.20 -11.45 -24 -2.20 -3.55 -7.90 -12.30 -8.45 -12.95 -0.25 -0.30 -1.65 -2.10 -3.10 -4.05 -1.40 -1.90 -2.80 -3.75 -3.10 -4.05 -0.25 -0.30 -1.30 -1.50 -2.25 -2.70 -1.60 -2 -6.65 -7.60 -8.55 -9.45 -3.45 -3.45 -9.20 -8.70 -11.45 -10.55 -1.50 -1.25 -2.85 -2.40 -3 -2.55 -1.30 -1.40 -18.50 -13.45 -19.30 -13.45 -0.15 0 -0.90 -0.40 -1.60 -0.95 -1.65 -1.15 -14.65 -7.75 -19.10 -9.70 -9.05 -3.95 -12.90 -5.30 -23.50 -8.35 -6.70 -1.90 -9.35 -2.50 -21.50 -4.70 -4.20 -0.75 -13.85 -1.95 -18.75 -2.35 -5.55 -0.45 -25.80 -0.15 -30 0.45 -2.45 0.35 -6.50 0.85 -9 1.15 -7.80 0.90 -19.15 3.25 -26.75 5.55 -7.20 2.20 -12.85 4.20 -16.25 5.65 -0.80 0.40 -2.75 1.15 -4.25 1.75 -6.25 2.45 -19.70 9.65 -26.50 14.20 -3.55 2.35 -12.95 9.20 -13.50 9.80 -0.15 0.15 -0.90 0.80 -1.65 1.40 -1.75 1.30 -9.10 7.85 -10.85 9.60 -4.05 4.10 -10.05 10.60 -11.75 12.75 -1.10 1.40 -2.15 2.60 -2.30 2.75 -0.30 0.30 -7.85 10.35 -8.85 11.80 -5.85 8.75 -12.85 21.95 -16.35 31 -1.30 3.25 -2.55 6.40 -2.75 6.95 -1.85 4.20 -5.60 17.10 -7.50 25.75 -0.60 2.60 -1.30 5.45 -1.55 6.30 -0.25 0.85 -0.45 2.05 -0.45 2.75 0 0.65 -0.45 3.55 -0.95 6.45 -0.50 2.90 -1.20 7.50 -1.55 10.25 -0.30 2.75 -0.80 6.60 -1.05 8.50 -0.65 4.90 -0.90 8.20 -1.20 18.50 -0.55 18.45 -1.30 33.70 -2.05 41 -1.50 14.90 -1.70 16.55 -2.20 19.50 -0.30 1.65 -0.75 4.45 -1 6.25 -0.30 1.80 -0.70 4.40 -1 5.75 -0.25 1.40 -0.70 3.65 -0.95 5 -0.55 3.25 -2.90 14.85 -3.60 17.75 -0.30 1.25 -0.75 3.25 -1 4.50 -0.30 1.25 -0.70 3.05 -0.95 4 -0.25 0.95 -0.70 2.90 -1.05 4.25 -0.65 2.95 -3.15 12.15 -3.95 14.75 -0.20 0.70 -0.65 2.25 -1 3.50 -0.90 3.15 -5.45 17.05 -6 18.25 -0.25 0.55 -0.90 2.45 -1.50 4.25 -0.60 1.80 -1.25 3.70 -1.50 4.25 -0.25 0.55 -0.70 1.90 -1.05 3 -0.35 1.10 -0.85 2.20 -1.05 2.45 -0.20 0.30 -0.40 0.80 -0.40 1.15 0 0.35 -0.45 1.75 -1.05 3.05 -0.60 1.30 -1.25 2.80 -1.45 3.35 -0.20 0.55 -0.75 1.80 -1.15 2.75 -0.45 0.95 -1.25 3 -1.85 4.50 -0.60 1.50 -1.70 4.10 -2.50 5.75 -0.75 1.65 -2.20 4.80 -3.15 7 -0.95 2.20 -3.25 7.15 -5.10 11 -7.55 15.70 -8.80 18.30 -10.15 21.35 -0.80 1.70 -1.70 3.95 -2.05 4.90 -0.30 0.95 -0.90 2.90 -1.35 4.25 -1.10 3.25 -1.35 11.15 -0.50 14.75 2.55 10.50 11 20.15 20.55 23.35 6.20 2.10 7.95 2.40 14.50 2.35 5.35 -0.05 7.35 -0.25 11.25 -1.35 4.40 -1.20 13.90 -4.35 16.25 -5.35 4.80 -2.10 15.20 -5.30 22 -6.75 6.15 -1.35 20.20 -0.90 23.35 0.80 0.50 0.25 1.10 0.45 1.40 0.45 1.05 0 5.35 2.25 8 4.15 6.20 4.50 12.45 12 17.50 21.10 3.95 7.05 8.15 13.85 9.40 15.15 0.30 0.35 0.60 0.85 0.60 1.05 0 0.20 1.05 1.45 2.40 2.85 5.15 5.40 9.80 8.45 16.10 10.55 4 1.30 13.20 1.55 17.40 0.45z"/>
  <path d="M486.75 613.20 c-3.35 -0.85 -8.45 -4.80 -12.30 -9.60 -2 -2.45 -20.40 -21.65 -38.45 -40.10 -1.50 -1.50 -3.85 -4 -5.20 -5.50 -1.35 -1.50 -5.35 -5.70 -8.85 -9.30 -5.25 -5.45 -6.45 -7 -7.20 -9.15 -2.10 -6.30 1.05 -13.30 7.15 -15.80 2.70 -1.15 7.45 -1.05 10.15 0.20 2.65 1.25 4.55 3.05 14.95 14.05 4.25 4.50 12.50 13.05 18.30 18.95 5.80 5.95 11.55 11.95 12.75 13.30 3.85 4.40 7.15 7.50 8.60 8.15 1.90 0.80 4.60 0.75 6.25 -0.10 0.75 -0.40 13.30 -12.85 27.85 -27.65 14.60 -14.80 31.45 -31.85 37.50 -37.90 6.05 -6.05 18.75 -18.85 28.15 -28.45 9.45 -9.60 18 -17.85 19 -18.40 3.50 -1.75 8.95 -0.80 12.35 2.20 2.95 2.60 4.25 5.55 4.25 9.70 0 5.30 -0.95 6.50 -19.50 25.25 -9.10 9.20 -23.20 23.55 -31.40 31.90 -8.15 8.35 -20.70 21.05 -27.85 28.30 -7.15 7.20 -15 15.20 -17.50 17.80 -13.50 14.10 -29.90 30.50 -31.30 31.20 -1.60 0.85 -5.95 1.40 -7.70 0.95z"/>
  <path d="M442.25 427.50 c-6.90 -1.20 -11.70 -3.55 -15.95 -7.85 -3.60 -3.60 -6.70 -9.05 -7.80 -13.65 -0.35 -1.50 -0.80 -3.40 -1.05 -4.20 -0.65 -2.10 -0.55 -10.90 0.15 -13.65 1.10 -4.50 2.95 -9.90 4.30 -12.30 2.60 -4.80 8.95 -9.70 14.60 -11.30 1.25 -0.35 2.70 -0.80 3.25 -1 0.55 -0.20 3.05 -0.45 5.50 -0.50 6.95 -0.20 14.40 2.10 19.30 6 2.70 2.15 6.10 6.85 7.40 10.25 0.60 1.65 1.35 3.35 1.60 3.80 0.25 0.50 0.45 1.35 0.45 1.95 0 0.55 0.25 1.45 0.55 2 0.30 0.60 0.55 4.10 0.50 8.60 0 7.20 -0.15 8.40 -1.85 14.35 -0.45 1.45 -2.95 6.15 -4.15 7.70 -3.05 3.95 -7.85 7.10 -13.80 9.10 -2.90 1 -9.40 1.35 -13 0.70z"/>
  <path d="M573.15 427.50 c-10.15 -1.10 -19.65 -10 -23 -21.70 -1.60 -5.45 -1.65 -15.30 -0.10 -20.50 1.20 -4.05 3.55 -9.20 4.85 -10.60 0.50 -0.50 1.40 -1.70 2.05 -2.60 0.60 -0.90 2.40 -2.55 3.90 -3.65 14 -10.35 34.55 -5.45 42.05 10.05 2.60 5.40 3.60 9.65 3.70 16.10 0.10 5.90 -0.30 9 -1.70 12.90 -4 11.35 -10.40 17.15 -22.05 19.95 -2.60 0.60 -4.25 0.60 -9.70 0.05z"/>
 </g>
 <g fill="#333463">
  <path d="M437.50 779.15 c-2.55 -0.25 -8.35 -1.30 -10.80 -1.90 -2.70 -0.70 -9.10 -3.10 -9.95 -3.75 -0.25 -0.25 -1.85 -1.15 -3.50 -2.05 -1.65 -0.90 -3.30 -1.95 -3.65 -2.30 -0.35 -0.35 -0.85 -0.65 -1.10 -0.65 -0.65 0 -10.15 -9.45 -12.65 -12.60 -2.40 -3 -6.25 -8.80 -8.20 -12.25 -0.60 -1.20 -1.70 -3.10 -2.35 -4.25 -6.40 -11.55 -8.90 -14.60 -14.05 -16.95 -3.05 -1.35 -4.05 -1.55 -7.75 -1.55 -5.30 0 -7.10 0.45 -23.50 6.15 -7.30 2.50 -13.90 4.75 -14.75 4.95 -12.55 3.50 -21.65 4.60 -29.35 3.55 -6.45 -0.90 -9.50 -1.65 -14 -3.45 -7.85 -3.15 -14.65 -7.55 -20.20 -13 -2.90 -2.85 -7.40 -8.65 -8.30 -10.70 -0.35 -0.80 -0.80 -1.40 -0.95 -1.40 -0.30 0 -1.80 -3.20 -3.70 -7.75 -2 -4.80 -2.75 -9.45 -2.75 -16.65 0.05 -5.55 0.30 -8.60 1.25 -14.15 0.45 -2.45 2.80 -10.20 3.75 -12.30 0.55 -1.20 1 -2.25 1 -2.40 0 -0.15 2.05 -4.45 4.55 -9.65 2.50 -5.15 5.95 -12.25 7.70 -15.85 2.90 -6.10 3.70 -7.75 6.25 -13.50 0.55 -1.25 1.45 -3.20 1.95 -4.35 1.55 -3.50 5.35 -12.50 6 -14.40 0.75 -2.10 1.35 -3.60 2.05 -5.10 0.60 -1.40 3.55 -9.70 5.30 -14.90 0.70 -2.05 1.45 -4.20 1.70 -4.75 0.20 -0.55 0.65 -1.90 0.95 -3 0.30 -1.10 1.15 -3.80 1.85 -6 1.50 -4.70 2.55 -8.75 5.70 -22 1.60 -6.70 2.20 -9.70 3 -14 0.25 -1.35 1 -5.60 1.70 -9.35 1.50 -7.75 1.65 -8.70 2.30 -13.90 0.25 -2.05 0.60 -4.65 0.75 -5.75 0.20 -1.10 0.40 -3 0.50 -4.25 0.15 -1.25 0.35 -3.60 0.55 -5.25 0.15 -1.65 0.30 -3.45 0.30 -4 0 -1.25 0.85 -10.85 1.20 -13.50 0.10 -1.10 0.35 -9.75 0.50 -19.25 0.10 -9.50 0.30 -18.15 0.45 -19.25 0.10 -1.10 0.35 -4 0.50 -6.50 0.15 -2.45 0.50 -5.60 0.75 -6.90 0.30 -1.30 0.50 -3.20 0.50 -4.20 0 -1 0.20 -3.10 0.50 -4.60 0.25 -1.55 0.70 -4.50 1 -6.55 0.30 -2.05 0.75 -4.75 1 -6 0.20 -1.25 0.70 -3.70 1 -5.50 1.65 -9.05 6.75 -27.25 9.35 -33.35 0.35 -0.85 0.65 -1.70 0.65 -1.90 0 -0.20 0.30 -1.05 0.70 -1.90 0.40 -0.90 1.35 -3.15 2.10 -5.10 4.05 -10.60 14.45 -29.55 21.20 -38.75 1.90 -2.55 3.55 -4.95 3.70 -5.20 0.10 -0.40 0.35 -0.40 0.75 0 0.40 0.35 0.10 1 -1.05 2.30 -0.90 1 -1.70 2.10 -1.80 2.50 -0.10 0.35 -0.70 1.15 -1.40 1.70 -0.65 0.60 -1.20 1.30 -1.20 1.60 0 1 -2.75 5.10 -3.40 5.10 -0.35 0 -0.50 0.25 -0.35 0.50 0.15 0.30 -0.05 0.65 -0.45 0.80 -0.45 0.15 -0.65 0.50 -0.50 0.75 0.15 0.25 0 0.45 -0.25 0.45 -0.30 0 -0.55 0.45 -0.55 1 0 0.55 -0.35 1.15 -0.75 1.30 -0.40 0.20 -0.60 0.50 -0.50 0.75 0.15 0.20 -0.15 0.85 -0.70 1.40 -0.55 0.55 -0.85 1.10 -0.65 1.25 0.15 0.15 0 0.30 -0.35 0.30 -0.35 0 -0.50 0.20 -0.30 0.45 0.30 0.60 -1.65 4.05 -2.35 4.05 -0.25 0 -0.30 0.25 -0.15 0.50 0.15 0.30 0.05 0.50 -0.25 0.50 -0.30 0 -0.40 0.25 -0.25 0.50 0.15 0.30 0.05 0.50 -0.20 0.50 -0.30 0 -0.50 0.15 -0.45 0.40 0.20 0.50 -1.15 3.60 -1.55 3.60 -0.20 0 -0.40 0.50 -0.40 1.10 -0.05 0.65 -0.35 1.20 -0.65 1.30 -0.25 0.10 -0.40 0.35 -0.25 0.60 0.15 0.25 0 0.70 -0.35 1.10 -0.35 0.35 -0.70 1 -0.80 1.40 -0.10 0.40 -0.40 0.85 -0.65 0.90 -0.25 0.10 -0.35 0.40 -0.15 0.65 0.15 0.25 0.05 0.45 -0.25 0.45 -0.30 0 -0.40 0.35 -0.25 0.75 0.20 0.40 0.05 0.75 -0.30 0.75 -0.30 0 -0.40 0.25 -0.25 0.50 0.15 0.30 0.05 0.50 -0.25 0.50 -0.30 0 -0.40 0.25 -0.25 0.50 0.15 0.30 0.10 0.50 -0.20 0.50 -0.30 0 -0.40 0.35 -0.25 0.75 0.20 0.40 0.05 0.75 -0.30 0.75 -0.30 0 -0.45 0.20 -0.30 0.45 0.35 0.55 -0.80 3.55 -1.35 3.55 -0.20 0 -0.25 0.25 -0.10 0.50 0.15 0.30 0.10 0.50 -0.20 0.50 -0.30 0 -0.40 0.35 -0.25 0.75 0.20 0.40 0.10 0.75 -0.15 0.75 -0.25 0 -0.45 0.50 -0.50 1.10 -0.05 0.55 -0.30 1.20 -0.50 1.35 -0.20 0.15 -0.45 0.85 -0.55 1.55 -0.05 0.70 -0.35 1.30 -0.60 1.40 -0.25 0.10 -0.30 0.50 -0.15 0.90 0.15 0.40 0.05 0.70 -0.25 0.70 -0.30 0 -0.40 0.40 -0.25 0.95 0.10 0.50 -0.10 1.25 -0.50 1.60 -0.40 0.35 -0.60 1.05 -0.45 1.55 0.10 0.50 -0.05 0.90 -0.35 0.90 -0.35 0 -0.45 0.25 -0.30 0.50 0.15 0.30 0.05 0.50 -0.25 0.50 -0.35 0 -0.45 0.40 -0.25 1 0.20 0.55 0.10 1 -0.20 1 -0.30 0 -0.40 0.35 -0.25 0.75 0.20 0.40 0.05 0.75 -0.30 0.75 -0.35 0 -0.45 0.40 -0.25 1 0.15 0.55 0.15 1 -0.10 1 -0.20 0 -0.45 0.85 -0.55 1.90 -0.05 1 -0.35 1.90 -0.60 2 -0.25 0.10 -0.30 0.50 -0.15 0.90 0.15 0.40 0.05 0.70 -0.25 0.70 -0.25 0 -0.35 0.55 -0.20 1.25 0.10 0.75 0 1.25 -0.35 1.25 -0.35 0 -0.45 0.25 -0.30 0.50 0.15 0.30 0.05 0.50 -0.25 0.50 -0.40 0 -0.45 0.50 -0.25 1.50 0.20 1 0.15 1.50 -0.25 1.50 -0.35 0 -0.45 0.40 -0.25 1 0.20 0.60 0.10 1 -0.25 1 -0.40 0 -0.45 0.50 -0.25 1.50 0.20 1 0.15 1.50 -0.25 1.50 -0.35 0 -0.45 0.40 -0.25 1 0.20 0.60 0.10 1 -0.25 1 -0.35 0 -0.45 0.60 -0.20 1.75 0.20 1.10 0.10 1.75 -0.25 1.75 -0.30 0 -0.40 0.35 -0.25 0.75 0.20 0.40 0.05 0.75 -0.30 0.75 -0.45 0 -0.55 0.50 -0.30 1.55 0.15 0.85 0.05 1.95 -0.25 2.50 -0.45 0.85 -0.90 4.75 -1.05 9.10 0 0.75 -0.25 1.35 -0.50 1.35 -0.30 0 -0.35 0.85 -0.15 2 0.20 1.35 0.15 2.30 -0.25 2.75 -0.35 0.40 -0.45 1.10 -0.30 1.55 0.15 0.45 0.15 1.05 -0.05 1.35 -0.25 0.35 -0.45 2.30 -0.45 4.35 -0.05 2.05 -0.25 5.10 -0.40 6.75 -0.15 1.65 -0.35 10.35 -0.35 19.40 -0.05 9 -0.30 16.35 -0.50 16.35 -0.50 0 -0.50 0.30 -0.45 7.20 0 3 -0.20 5.20 -0.55 5.60 -0.35 0.45 -0.45 1.45 -0.25 2.70 0.15 1.10 0.10 2 -0.15 2 -0.25 0 -0.45 1.40 -0.45 3.15 -0.05 5.40 -0.15 6.35 -0.70 6.35 -0.35 0 -0.40 0.65 -0.25 1.70 0.15 0.95 -0.05 2.75 -0.40 4 -0.45 1.40 -0.60 3.25 -0.40 4.80 0.15 1.40 0.10 2.50 -0.15 2.50 -0.55 0 -0.60 0.45 -0.85 4.45 -0.10 1.50 -0.40 2.80 -0.75 2.95 -0.40 0.10 -0.45 0.90 -0.25 2.40 0.20 1.55 0.10 2.20 -0.30 2.20 -0.35 0 -0.45 0.25 -0.30 0.50 0.15 0.30 0.05 0.50 -0.30 0.50 -0.35 0 -0.45 0.55 -0.25 1.75 0.25 1.15 0.15 1.75 -0.20 1.75 -0.35 0 -0.45 0.40 -0.25 1 0.20 0.60 0.10 1 -0.25 1 -0.40 0 -0.45 0.50 -0.25 1.50 0.20 1 0.15 1.50 -0.25 1.50 -0.35 0 -0.45 0.40 -0.25 1 0.20 0.60 0.10 1 -0.25 1 -0.40 0 -0.45 0.50 -0.25 1.50 0.20 0.90 0.15 1.50 -0.20 1.50 -0.30 0 -0.40 0.35 -0.25 0.75 0.20 0.40 0.05 0.75 -0.25 0.75 -0.35 0 -0.45 0.45 -0.25 1.25 0.20 0.80 0.10 1.25 -0.30 1.25 -0.35 0 -0.50 0.35 -0.30 0.75 0.15 0.40 0.05 0.75 -0.25 0.75 -0.35 0 -0.45 0.50 -0.25 1.25 0.20 0.80 0.10 1.25 -0.25 1.25 -0.30 0 -0.45 0.35 -0.25 0.75 0.15 0.40 0.05 0.75 -0.25 0.75 -0.35 0 -0.45 0.50 -0.25 1.20 0.15 0.70 0.10 1.35 -0.20 1.55 -0.25 0.15 -0.35 0.60 -0.15 1 0.15 0.40 0 0.75 -0.30 0.75 -0.30 0 -0.40 0.55 -0.25 1.40 0.20 0.95 0 1.70 -0.50 2.25 -0.45 0.40 -0.65 1.15 -0.50 1.55 0.20 0.45 0.05 0.80 -0.30 0.80 -0.35 0 -0.50 0.35 -0.30 0.75 0.15 0.40 0.05 0.75 -0.25 0.75 -0.30 0 -0.40 0.45 -0.20 1 0.20 0.55 0.10 1 -0.20 1 -0.30 0 -0.40 0.35 -0.25 0.75 0.20 0.40 0.05 0.75 -0.30 0.75 -0.35 0 -0.45 0.40 -0.25 1 0.20 0.55 0.10 1 -0.20 1 -0.30 0 -0.40 0.35 -0.25 0.75 0.20 0.40 0.10 0.75 -0.20 0.75 -0.30 0 -0.40 0.45 -0.25 1 0.15 0.60 0 1 -0.30 1 -0.35 0 -0.45 0.25 -0.30 0.50 0.15 0.30 0.05 0.50 -0.25 0.50 -0.35 0 -0.45 0.35 -0.30 0.85 0.35 0.90 -1.05 5.65 -1.70 5.65 -0.20 0 -0.30 0.45 -0.15 1 0.15 0.60 0 1 -0.30 1 -0.35 0 -0.45 0.25 -0.30 0.50 0.15 0.30 0.05 0.50 -0.25 0.50 -0.35 0 -0.45 0.40 -0.25 1 0.20 0.60 0.10 1 -0.25 1 -0.30 0 -0.40 0.25 -0.25 0.50 0.15 0.30 0.10 0.50 -0.15 0.50 -0.30 0 -0.40 0.40 -0.25 0.95 0.10 0.50 -0.10 1.20 -0.50 1.60 -0.35 0.40 -0.60 1 -0.45 1.35 0.10 0.30 -0.05 0.60 -0.40 0.60 -0.30 0 -0.40 0.25 -0.25 0.50 0.15 0.30 0.05 0.50 -0.25 0.50 -0.35 0 -0.45 0.40 -0.25 1 0.20 0.65 0.05 1.10 -0.50 1.30 -0.45 0.20 -0.65 0.65 -0.50 1.20 0.15 0.50 0 1.20 -0.40 1.60 -0.35 0.35 -0.60 0.95 -0.45 1.30 0.10 0.30 -0.05 0.60 -0.40 0.60 -0.30 0 -0.40 0.25 -0.25 0.50 0.15 0.30 0.10 0.50 -0.20 0.50 -0.30 0 -0.40 0.35 -0.25 0.75 0.20 0.40 0.05 0.75 -0.30 0.75 -0.30 0 -0.40 0.25 -0.25 0.50 0.15 0.30 0.10 0.50 -0.20 0.50 -0.30 0 -0.40 0.35 -0.25 0.75 0.20 0.40 0.05 0.75 -0.30 0.75 -0.30 0 -0.40 0.25 -0.25 0.50 0.15 0.30 0.10 0.50 -0.20 0.50 -0.30 0 -0.40 0.35 -0.25 0.75 0.20 0.40 0.05 0.75 -0.30 0.75 -0.30 0 -0.40 0.25 -0.25 0.50 0.15 0.30 0.10 0.50 -0.20 0.50 -0.30 0 -0.40 0.35 -0.25 0.75 0.20 0.40 0.05 0.75 -0.30 0.75 -0.30 0 -0.40 0.25 -0.25 0.50 0.15 0.30 0.10 0.50 -0.20 0.50 -0.30 0 -0.40 0.35 -0.25 0.75 0.20 0.40 0.05 0.75 -0.25 0.75 -0.30 0 -0.40 0.30 -0.25 0.70 0.15 0.35 -0.05 1 -0.40 1.35 -0.35 0.40 -0.70 1.05 -0.80 1.45 -0.10 0.40 -0.40 0.85 -0.65 0.90 -0.25 0.10 -0.35 0.40 -0.15 0.65 0.15 0.25 0.05 0.45 -0.25 0.45 -0.30 0 -0.40 0.35 -0.25 0.75 0.20 0.40 0.05 0.75 -0.30 0.75 -0.30 0 -0.45 0.20 -0.25 0.45 0.15 0.25 -0.05 0.75 -0.40 1.15 -0.40 0.35 -0.60 0.90 -0.50 1.20 0.10 0.35 -0.10 0.90 -0.45 1.30 -0.35 0.35 -0.70 1 -0.80 1.40 -0.10 0.40 -0.40 0.85 -0.65 0.90 -0.25 0.10 -0.35 0.40 -0.15 0.65 0.15 0.25 0 0.45 -0.30 0.45 -0.30 0 -0.45 0.20 -0.25 0.45 0.35 0.60 -1.75 5.05 -2.40 5.05 -0.20 0 -0.25 0.25 -0.10 0.50 0.15 0.30 0.10 0.50 -0.20 0.50 -0.30 0 -0.40 0.30 -0.25 0.70 0.15 0.35 -0.10 0.80 -0.50 0.95 -0.45 0.20 -0.65 0.65 -0.50 1.10 0.15 0.40 0.05 0.75 -0.30 0.75 -0.30 0 -0.40 0.25 -0.25 0.50 0.15 0.30 0.05 0.50 -0.25 0.50 -0.30 0 -0.40 0.25 -0.25 0.50 0.15 0.30 0.05 0.50 -0.25 0.50 -0.30 0 -0.45 0.20 -0.25 0.45 0.15 0.25 -0.05 0.80 -0.45 1.20 -0.40 0.40 -0.60 0.85 -0.45 1.05 0.20 0.15 0.05 0.30 -0.30 0.30 -0.35 0 -0.45 0.25 -0.30 0.50 0.15 0.30 0.05 0.50 -0.25 0.50 -0.30 0 -0.40 0.25 -0.25 0.50 0.15 0.30 0.05 0.50 -0.25 0.50 -0.30 0 -0.40 0.25 -0.25 0.50 0.15 0.30 0.05 0.50 -0.25 0.50 -0.30 0 -0.45 0.20 -0.25 0.45 0.15 0.25 -0.05 0.80 -0.45 1.20 -0.40 0.40 -0.60 0.85 -0.45 1.05 0.20 0.15 0.05 0.30 -0.30 0.30 -0.35 0 -0.45 0.25 -0.30 0.50 0.15 0.30 0.05 0.50 -0.20 0.50 -0.30 0 -0.50 0.15 -0.50 0.40 0.20 1.05 -0.15 2 -0.90 2.90 -0.50 0.50 -0.95 1.40 -1.05 1.95 -0.10 0.55 -0.45 1.25 -0.80 1.50 -0.35 0.30 -0.55 0.80 -0.45 1.10 0.15 0.35 -0.10 0.80 -0.55 0.95 -0.40 0.15 -0.60 0.60 -0.45 1 0.15 0.40 0 0.70 -0.35 0.70 -0.30 0 -0.40 0.25 -0.25 0.55 0.20 0.30 -0.15 1.05 -0.75 1.70 -0.60 0.65 -0.95 1.40 -0.75 1.70 0.15 0.30 0.05 0.55 -0.25 0.55 -0.30 0 -0.40 0.25 -0.25 0.50 0.15 0.30 0.10 0.50 -0.20 0.50 -0.30 0 -0.40 0.35 -0.25 0.75 0.20 0.40 0.10 0.75 -0.10 0.75 -0.25 0 -0.50 0.60 -0.55 1.35 0 0.75 -0.30 1.45 -0.60 1.55 -0.30 0.10 -0.45 0.40 -0.25 0.65 0.15 0.25 0 0.45 -0.30 0.45 -0.35 0 -0.45 0.40 -0.25 1 0.20 0.55 0.10 1 -0.20 1 -0.30 0 -0.40 0.35 -0.25 0.75 0.20 0.40 0.05 0.75 -0.30 0.75 -0.40 0 -0.50 0.45 -0.30 1.25 0.20 0.75 0.10 1.25 -0.20 1.25 -0.35 0 -0.45 0.40 -0.25 1 0.20 0.60 0.10 1 -0.25 1 -0.40 0 -0.45 0.70 -0.20 2.25 0.20 1.50 0.10 2.50 -0.30 3 -0.35 0.40 -0.50 1.10 -0.30 1.50 0.15 0.40 0.10 0.75 -0.15 0.75 -0.20 0 -0.30 2.30 -0.25 5.15 0.05 2.80 0.15 5.10 0.20 5.10 0.10 0 0.50 2.70 0.65 4.40 0.05 0.75 0.30 1.35 0.50 1.35 0.25 0 0.25 0.25 0.10 0.50 -0.15 0.30 -0.05 0.50 0.30 0.50 0.35 0 0.45 0.50 0.35 1.25 -0.15 0.70 -0.05 1.25 0.20 1.25 0.25 0 0.30 0.25 0.15 0.50 -0.15 0.30 -0.05 0.50 0.25 0.50 0.35 0 0.50 0.30 0.40 0.60 -0.15 0.35 0.10 0.95 0.45 1.35 0.40 0.35 0.60 1 0.45 1.40 -0.15 0.35 0.05 0.80 0.50 1 0.40 0.15 0.65 0.60 0.50 0.95 -0.15 0.40 -0.05 0.70 0.20 0.70 0.25 0 0.60 0.55 0.80 1.25 0.15 0.70 0.50 1.25 0.80 1.25 0.25 0 0.30 0.25 0.15 0.50 -0.15 0.30 -0.15 0.50 0.10 0.50 0.20 0 1.05 1.15 1.90 2.50 0.80 1.40 1.65 2.50 1.85 2.50 0.20 0 0.40 0.25 0.40 0.60 0 1.45 7.70 8.65 13 12.10 4.55 3 5.45 3.45 10.50 5.65 2.70 1.20 7.30 2.70 7.85 2.55 0.20 -0.05 1.40 0.20 2.65 0.55 2.70 0.80 18.80 0.80 19.75 0.05 0.35 -0.30 1 -0.40 1.45 -0.20 0.45 0.15 0.80 0.05 0.80 -0.25 0 -0.35 0.45 -0.45 1.15 -0.30 1.35 0.35 9.85 -1.95 10.35 -2.80 0.20 -0.30 0.60 -0.45 0.90 -0.25 0.55 0.35 10.60 -2.95 11.05 -3.60 0.15 -0.25 0.75 -0.45 1.30 -0.45 0.55 0 3.95 -1.10 7.50 -2.35 3.60 -1.30 7.05 -2.40 7.70 -2.55 0.65 -0.10 1.35 -0.40 1.50 -0.65 0.35 -0.45 3 -0.70 8.05 -0.70 4.40 0 5.80 0.30 8.75 1.80 2.55 1.35 7.25 5.40 7.25 6.25 0 0.25 0.15 0.55 0.40 0.65 0.50 0.20 3.10 4.30 3.10 4.90 0 0.25 0.20 0.50 0.40 0.50 0.25 0 0.95 1.20 1.65 2.65 0.65 1.40 1.30 2.70 1.50 2.85 0.15 0.15 0.80 1.25 1.50 2.50 0.65 1.25 1.35 2.35 1.60 2.40 0.20 0.10 0.25 0.40 0.05 0.65 -0.15 0.25 -0.05 0.45 0.25 0.45 0.25 0 0.65 0.50 0.85 1.10 0.15 0.60 0.75 1.55 1.25 2.10 0.55 0.55 0.95 1.30 0.95 1.65 0 0.35 0.25 0.65 0.50 0.65 0.30 0 0.50 0.35 0.50 0.75 0 0.40 0.20 0.75 0.40 0.75 0.20 0 0.80 0.70 1.30 1.55 1.35 2.25 10.15 11.30 12.80 13.10 1.25 0.85 2.35 1.70 2.50 1.85 0.50 0.65 7.35 4.25 9.75 5.15 4.05 1.50 6.95 2.35 7.15 2.10 0.15 -0.10 0.80 0.10 1.55 0.45 0.75 0.40 3.10 0.85 5.30 1 2.20 0.15 4.50 0.45 5.15 0.60 1.40 0.40 10.35 -0.70 12.35 -1.55 0.85 -0.35 1.95 -0.65 2.50 -0.65 2.10 -0.05 10.25 -3.30 10.25 -4.10 0 -0.20 0.70 -0.65 1.50 -0.95 0.85 -0.30 2.20 -0.80 3 -1.10 0.85 -0.30 1.50 -0.90 1.50 -1.25 0 -0.40 0.60 -0.85 1.40 -1 1.90 -0.50 5.10 -2.70 5.10 -3.50 0 -0.40 0.35 -0.70 0.75 -0.70 0.40 0 0.75 -0.20 0.75 -0.50 0 -0.25 0.35 -0.50 0.80 -0.50 0.70 0 3.55 -2 5.95 -4.20 0.55 -0.50 1.85 -1.45 2.95 -2.15 1.05 -0.70 2.05 -1.65 2.15 -2.20 0.15 -0.50 0.70 -0.95 1.20 -0.95 0.55 0 0.95 -0.35 0.95 -0.75 0 -0.40 0.35 -0.75 0.80 -0.75 0.90 0 3.30 -1.75 2.90 -2.10 -0.10 -0.15 0.40 -0.40 1.15 -0.55 0.75 -0.15 1.90 -0.75 2.50 -1.30 0.60 -0.60 1.40 -1.05 1.75 -1.05 0.60 0 4.20 -1.15 5.90 -1.85 1.40 -0.60 5.75 -0.45 7.10 0.20 0.75 0.35 1.75 0.65 2.30 0.65 2.35 0 11.25 5.20 20.60 11.95 6.85 5 14.60 10.10 17.55 11.60 1.75 0.90 3.30 1.75 3.45 1.90 0.90 1.05 11.20 4.85 15.95 5.85 6.65 1.40 20.10 1.20 21.05 -0.30 0.20 -0.35 0.65 -0.50 0.95 -0.30 0.80 0.50 8.05 -1.80 8.05 -2.60 0 -0.35 0.40 -0.60 0.90 -0.50 1.10 0.15 7.10 -3.15 7.10 -3.95 0 -0.35 0.60 -0.65 1.30 -0.65 0.85 0 1.40 -0.30 1.55 -1 0.15 -0.55 0.60 -1 1.05 -1 0.95 0 9.75 -8.85 9.40 -9.45 -0.15 -0.20 0.60 -1.10 1.70 -2 1.10 -0.90 2 -1.90 2 -2.30 0 -0.40 0.55 -1.30 1.30 -2 0.70 -0.70 1.15 -1.45 1 -1.70 -0.15 -0.25 0.05 -0.55 0.45 -0.75 0.40 -0.15 0.75 -0.60 0.75 -1.05 0 -0.40 0.25 -0.75 0.55 -0.75 0.30 0 0.45 -0.30 0.30 -0.70 -0.15 -0.40 0 -0.85 0.40 -1 0.65 -0.25 4.40 -6.20 5.55 -8.80 0.30 -0.70 1.50 -2.70 2.60 -4.45 1.15 -1.75 1.95 -3.35 1.80 -3.60 -0.15 -0.25 0.05 -0.45 0.40 -0.45 0.85 0 4.40 -3.55 4.40 -4.40 0 -0.35 0.50 -0.60 1.15 -0.60 0.60 0 1.55 -0.35 2.10 -0.80 0.55 -0.40 1.80 -0.95 2.85 -1.25 1.05 -0.25 1.90 -0.65 1.90 -0.85 0 -0.55 8.50 -0.20 10 0.40 0.75 0.30 1.70 0.50 2.05 0.45 0.80 -0.15 8 2 8.70 2.65 0.25 0.20 0.85 0.40 1.35 0.40 0.50 0 1.30 0.20 1.80 0.45 1.30 0.70 2.75 1.20 3.70 1.30 0.50 0.05 1.15 0.35 1.50 0.60 0.60 0.50 3 1.30 4.15 1.40 0.30 0 1.05 0.35 1.65 0.70 0.65 0.35 1.30 0.50 1.45 0.35 0.15 -0.15 0.75 0.05 1.35 0.45 0.55 0.40 1.50 0.75 2.10 0.75 0.55 0 1.20 0.15 1.40 0.35 0.20 0.25 0.55 0.40 0.70 0.45 0.20 0 1 0.30 1.80 0.65 0.80 0.30 1.55 0.45 1.70 0.30 0.15 -0.15 0.80 0.10 1.50 0.55 0.65 0.40 1.50 0.65 1.85 0.50 0.40 -0.15 0.85 -0.05 1 0.25 0.20 0.25 0.60 0.45 0.90 0.40 0.35 -0.05 1.15 0.05 1.85 0.20 6 1.60 22 1.30 23.70 -0.45 0.40 -0.35 1.15 -0.50 1.75 -0.35 0.60 0.15 1.05 0.05 1.05 -0.30 0 -0.30 0.80 -0.55 1.75 -0.55 0.95 0 1.75 -0.20 1.75 -0.50 0 -0.25 0.55 -0.50 1.20 -0.50 1.50 0 4.80 -1.35 4.80 -2 0 -0.25 0.40 -0.40 0.90 -0.40 1.35 0.05 3.60 -1 3.90 -1.85 0.20 -0.40 0.70 -0.75 1.15 -0.75 1.90 0 11.30 -7.55 11.30 -9.10 0 -0.35 0.45 -0.85 1.05 -1.15 1.30 -0.65 2.70 -2.05 2.70 -2.70 0 -0.25 0.55 -1.10 1.30 -1.80 0.70 -0.70 1.15 -1.45 1 -1.70 -0.15 -0.25 0.05 -0.60 0.45 -0.75 0.65 -0.25 2.15 -3.05 5 -9.50 0.50 -1.05 0.90 -2.65 0.95 -3.50 0 -0.85 0.25 -1.70 0.50 -1.90 1.20 -0.85 1.90 -10.70 1.15 -15.65 -0.20 -1.35 -0.40 -2.95 -0.40 -3.50 0 -1.75 -1.50 -8.50 -1.90 -8.65 -0.25 -0.10 -0.35 -0.55 -0.20 -1.05 0.15 -0.50 -0.10 -1.25 -0.50 -1.60 -0.40 -0.35 -0.60 -1.05 -0.45 -1.55 0.10 -0.50 -0.05 -0.90 -0.35 -0.90 -0.30 0 -0.55 -0.40 -0.55 -0.95 0 -1.25 -1.60 -5.05 -5.10 -12.20 -1.60 -3.25 -2.90 -6.10 -2.90 -6.35 0 -0.30 -0.15 -0.50 -0.35 -0.50 -0.45 0 -1.65 -2.45 -1.65 -3.35 0 -0.35 -0.20 -0.65 -0.50 -0.65 -0.25 0 -0.50 -0.45 -0.50 -1 0 -0.55 -0.20 -1 -0.45 -1 -0.25 0 -0.60 -0.55 -0.75 -1.25 -0.20 -0.70 -0.55 -1.25 -0.85 -1.25 -0.30 0 -0.40 -0.20 -0.25 -0.40 0.15 -0.25 -1.10 -3.15 -2.70 -6.50 -1.65 -3.40 -3 -6.20 -3 -6.35 0 -0.10 -0.65 -1.70 -1.50 -3.50 -0.80 -1.80 -1.50 -3.40 -1.50 -3.50 0 -0.10 -0.70 -1.70 -1.50 -3.50 -0.85 -1.80 -1.50 -3.40 -1.50 -3.50 0 -0.30 -1.85 -4.60 -2.55 -5.85 -0.25 -0.50 -0.45 -1.25 -0.45 -1.65 0 -0.40 -0.20 -0.75 -0.40 -0.75 -0.25 0 -0.45 -0.30 -0.45 -0.70 0 -0.60 -1.45 -4.70 -2.70 -7.55 -0.20 -0.55 -0.80 -2.20 -1.25 -3.60 -0.45 -1.45 -1 -2.65 -1.20 -2.65 -0.25 0 -0.30 -0.40 -0.15 -0.95 0.10 -0.50 -0.10 -1.25 -0.50 -1.60 -0.40 -0.35 -0.60 -1.05 -0.45 -1.55 0.10 -0.50 -0.05 -0.90 -0.35 -0.90 -0.35 0 -0.45 -0.20 -0.30 -0.50 0.15 -0.25 0.10 -0.50 -0.20 -0.50 -0.30 0 -0.40 -0.30 -0.25 -0.70 0.15 -0.35 -0.10 -1 -0.50 -1.45 -0.40 -0.40 -0.60 -0.85 -0.45 -1.05 0.40 -0.40 -1.35 -5.80 -1.90 -5.80 -0.20 0 -0.30 -0.35 -0.15 -0.75 0.20 -0.40 0.05 -1.10 -0.30 -1.50 -0.35 -0.40 -0.50 -0.75 -0.35 -0.75 0.25 0 -0.80 -4.25 -1.50 -6 -0.15 -0.40 -0.35 -1.05 -0.45 -1.45 -0.55 -2.80 -2.40 -9.40 -2.75 -9.85 -0.25 -0.30 -0.30 -0.70 -0.10 -0.85 0.15 -0.20 0.10 -0.35 -0.20 -0.35 -0.30 0 -0.45 -0.45 -0.30 -1 0.15 -0.55 0.10 -1.40 -0.15 -1.85 -0.20 -0.50 -0.40 -1.05 -0.40 -1.25 -0.05 -0.15 -0.20 -0.45 -0.40 -0.65 -0.20 -0.20 -0.20 -0.65 -0.05 -1.05 0.15 -0.40 0.05 -1 -0.20 -1.35 -0.25 -0.30 -0.50 -1.40 -0.60 -2.35 -0.10 -0.95 -0.35 -2 -0.60 -2.30 -0.25 -0.30 -0.35 -0.65 -0.20 -0.75 0.10 -0.15 -0.05 -1.10 -0.30 -2.20 -0.25 -1.10 -0.60 -2.65 -0.75 -3.50 -0.25 -1.50 -0.75 -3.65 -1.20 -5.10 -0.05 -0.25 -0.05 -1 0 -1.75 0.05 -0.75 -0.20 -1.85 -0.55 -2.50 -0.35 -0.65 -0.60 -1.65 -0.50 -2.25 0.05 -0.60 -0.15 -2.05 -0.50 -3.25 -0.30 -1.20 -0.65 -3.05 -0.70 -4.15 -0.10 -1.10 -0.30 -2.80 -0.45 -3.75 -0.20 -0.95 -0.40 -3.25 -0.50 -5.05 -0.10 -1.85 -0.35 -3.60 -0.50 -3.90 -0.20 -0.30 -0.45 -2.05 -0.55 -3.90 -0.15 -1.90 -0.45 -6.20 -0.80 -9.65 -0.30 -3.45 -0.50 -7.45 -0.50 -8.90 0.05 -1.45 -0.10 -2.95 -0.30 -3.25 -0.20 -0.35 -0.45 -2.75 -0.50 -5.35 -0.20 -7.40 -0.60 -27.15 -0.65 -33.25 -0.05 -5.20 -0.80 -13.60 -1.35 -15.25 -0.35 -0.95 -0.55 -2.50 -0.80 -6 -0.20 -3.25 -0.80 -7.45 -1.20 -8.50 -0.60 -1.50 -0.70 -2.30 -0.65 -3.85 0 -0.85 -0.15 -1.70 -0.40 -1.85 -0.20 -0.10 -0.45 -1.20 -0.55 -2.35 -0.05 -1.15 -0.25 -2.35 -0.40 -2.65 -0.20 -0.30 -0.40 -1.10 -0.45 -1.80 -0.10 -0.70 -0.40 -2.25 -0.70 -3.50 -0.30 -1.25 -0.80 -3.25 -1.10 -4.50 -0.30 -1.25 -0.70 -2.45 -0.85 -2.75 -0.15 -0.25 -0.35 -1.05 -0.45 -1.75 -0.35 -2.60 -6.75 -21.65 -7.65 -22.80 -0.25 -0.30 -0.30 -0.70 -0.10 -0.85 0.15 -0.20 0 -0.35 -0.35 -0.35 -0.35 0 -0.55 -0.15 -0.40 -0.30 0.30 -0.30 -0.20 -1.70 -2.30 -6.45 -0.60 -1.35 -1.40 -3.25 -1.75 -4.10 -0.40 -0.90 -0.85 -1.65 -1.10 -1.65 -0.25 0 -0.40 -0.15 -0.35 -0.35 0.20 -0.75 -0.65 -2.65 -1.15 -2.65 -0.30 0 -0.35 -0.20 -0.20 -0.50 0.15 -0.25 0.05 -0.50 -0.25 -0.50 -0.30 0 -0.45 -0.20 -0.25 -0.45 0.15 -0.25 0 -0.75 -0.35 -1.15 -0.35 -0.35 -1.45 -2.30 -2.40 -4.25 -0.95 -2 -1.90 -3.65 -2.10 -3.65 -0.25 0 -0.40 -0.35 -0.40 -0.75 0 -0.40 -0.15 -0.75 -0.40 -0.75 -0.20 0 -0.70 -0.75 -1.05 -1.60 -0.40 -0.90 -1 -1.90 -1.25 -2.25 -1.40 -1.60 -1.85 -2.15 -1.85 -2.50 -0.10 -0.75 -0.65 -1.90 -0.95 -2.15 -0.15 -0.15 -1.15 -1.55 -2.20 -3.15 -1.05 -1.55 -2.10 -2.85 -2.40 -2.85 -0.25 0 -0.35 -0.20 -0.20 -0.45 0.20 -0.25 0.10 -0.55 -0.10 -0.65 -0.20 -0.05 -1.10 -1.15 -1.95 -2.40 -0.85 -1.25 -2.25 -3 -3.10 -3.90 -0.85 -0.90 -1.55 -1.80 -1.55 -2 0 -0.20 -1.25 -1.55 -2.75 -3 -1.50 -1.45 -2.75 -2.80 -2.75 -2.95 0 -0.15 -0.45 -0.75 -1 -1.35 -7.80 -8.05 -11.45 -11.65 -15.10 -14.80 -6.90 -6 -8.80 -7.50 -9.30 -7.50 -0.25 0 -0.75 -0.35 -1.10 -0.75 -0.55 -0.65 -3.95 -3.10 -8.50 -6.10 -0.95 -0.60 -2 -1.35 -2.35 -1.65 -0.35 -0.30 -1.20 -0.75 -1.90 -1.10 -0.70 -0.30 -1.25 -0.75 -1.25 -1 0 -0.20 -0.25 -0.40 -0.55 -0.40 -0.30 0 -1.15 -0.40 -1.85 -0.95 -3.25 -2.25 -17.45 -9.40 -24.35 -12.25 -0.80 -0.35 -3.20 -1.35 -5.25 -2.25 -2.05 -0.90 -4.15 -1.70 -4.60 -1.80 -0.45 -0.10 -1.35 -0.45 -2 -0.80 -0.65 -0.35 -1.20 -0.60 -1.30 -0.55 -0.15 0.15 -2.65 -0.40 -3.60 -0.75 -0.40 -0.20 -0.90 -0.35 -1.10 -0.40 -0.25 -0.10 -0.50 -0.20 -0.65 -0.25 -0.15 -0.05 -0.45 -0.20 -0.75 -0.25 -0.25 -0.05 -0.60 -0.20 -0.75 -0.25 -0.15 -0.05 -0.45 -0.20 -0.75 -0.25 -0.25 -0.05 -0.65 -0.20 -0.85 -0.25 -0.25 -0.05 -0.60 -0.10 -0.80 -0.05 -0.20 0.05 -1 -0.25 -1.80 -0.70 -0.80 -0.40 -1.55 -0.60 -1.70 -0.45 -0.15 0.15 -0.75 0 -1.35 -0.30 -0.60 -0.30 -1.45 -0.65 -1.90 -0.75 -0.45 -0.10 -2.40 -0.55 -4.35 -1.05 -1.90 -0.45 -4.05 -0.90 -4.75 -1 -0.70 -0.05 -1.80 -0.25 -2.50 -0.40 -1.25 -0.25 -3.70 -0.70 -6 -1.10 -0.70 -0.10 -2.15 -0.35 -3.25 -0.50 -3.20 -0.40 -4.50 -0.60 -4.75 -0.70 -0.15 -0.05 -0.65 -0.05 -1.15 0 -0.55 0.05 -2 -0.15 -3.25 -0.45 -4.80 -1.10 -21.75 -2 -31.60 -1.75 -6.25 0.15 -7.95 0.10 -7 -0.30 1.45 -0.65 25.85 -0.30 33.50 0.45 8.60 0.85 10.20 1.05 13 1.50 1.50 0.30 4.45 0.75 6.50 1.05 3.70 0.55 5.40 0.90 10.25 2 3.55 0.80 8.20 2 13.75 3.50 2.05 0.55 4.15 1.25 4.60 1.50 0.50 0.30 1.20 0.50 1.60 0.50 0.55 0 2.45 0.65 7.05 2.50 0.55 0.25 2 0.80 3.25 1.25 1.25 0.45 3.05 1.15 4 1.60 0.95 0.40 2.20 0.95 2.75 1.15 2.10 0.85 14 6.70 14.25 6.95 0.15 0.15 0.95 0.65 1.75 1.05 3.90 1.95 17 10.05 19.50 12.10 0.30 0.25 2.10 1.60 4 3 1.95 1.40 3.60 2.70 3.75 2.85 0.15 0.15 1.25 1.10 2.50 2.05 6.15 4.75 20.10 18.70 25 25 0.95 1.25 1.85 2.35 2 2.50 0.15 0.15 1.05 1.25 2 2.50 0.95 1.25 1.90 2.50 2.15 2.75 0.20 0.30 1.25 1.75 2.35 3.25 1.10 1.50 2.15 3 2.40 3.30 0.25 0.25 0.75 1.05 1.10 1.75 0.35 0.65 0.80 1.30 0.95 1.45 1.50 1.20 13.30 23.40 16.25 30.65 0.45 1 1.10 2.60 1.50 3.50 1.10 2.50 4.65 12.30 5.55 15.35 0.45 1.50 1.15 3.65 1.50 4.75 0.65 2 1.30 4.30 1.55 5.75 0.05 0.40 0.35 1.55 0.65 2.50 1.70 6 2.55 10.15 4.80 22.50 2.15 11.75 3.65 31.75 4 53.75 0.25 13.95 0.30 15.35 1.25 27.25 0.85 10.15 3.30 28.90 4.75 36.50 1.45 7.30 3.05 15.15 3.70 17.75 0.30 1.10 0.70 3.05 1 4.30 1.10 5 4.35 17.10 6.55 24.20 0.60 1.95 1.25 4.20 1.50 5 0.20 0.85 1.35 4.10 2.50 7.25 1.15 3.15 2.50 7.05 3 8.60 1.50 4.50 7 18.10 10.05 24.80 0.80 1.75 1.45 3.25 1.45 3.35 0 0.60 5.50 12.20 12.75 27 3.15 6.35 6 12.40 6.40 13.50 4.80 12.85 5.85 17.55 5.85 26.35 0 5.95 -0.60 11 -1.50 13.15 -0.25 0.55 -0.80 2.05 -1.20 3.35 -1.60 4.85 -6.65 13.80 -9.30 16.40 -0.40 0.40 -1.65 1.75 -2.70 3 -1.10 1.25 -3.25 3.20 -4.75 4.35 -1.55 1.20 -3.10 2.40 -3.45 2.70 -1.50 1.25 -7.65 4.50 -11.35 6 -2.20 0.85 -6.60 2.25 -9.75 3.05 -8.95 2.25 -19.95 2.15 -29.25 -0.40 -1.35 -0.35 -3.05 -0.80 -3.75 -1 -2.85 -0.80 -15.80 -5.20 -16.60 -5.70 -0.50 -0.25 -1.25 -0.50 -1.65 -0.50 -0.40 0 -1.15 -0.20 -1.65 -0.50 -1 -0.55 -9.10 -3.40 -10.75 -3.75 -0.60 -0.10 -2.80 -0.60 -4.85 -1.05 -4.85 -1.05 -7.85 -0.70 -12.25 1.50 -5.45 2.70 -8.70 6.45 -13.95 16 -13.25 24.15 -27.45 36.65 -45.30 39.85 -6.20 1.10 -13.50 1.10 -18.85 0 -5.90 -1.20 -12.80 -3.55 -16.40 -5.50 -9.15 -5.05 -11.80 -6.70 -21.20 -13.45 -13.40 -9.60 -17.10 -11.70 -23 -12.85 -7.70 -1.60 -12.30 -0.05 -22 7.30 -2.30 1.75 -4.70 3.55 -5.25 3.95 -0.60 0.40 -2.05 1.55 -3.30 2.65 -2.45 2.10 -2.45 2.10 -5 3.85 -0.95 0.70 -1.85 1.40 -2 1.55 -0.55 0.65 -7.85 5.40 -9.25 6 -0.80 0.40 -1.60 0.80 -1.75 0.95 -0.35 0.40 -3.25 1.75 -6 2.75 -1.25 0.45 -2.70 1.05 -3.25 1.30 -3.30 1.40 -15.80 3 -20.25 2.60z"/>
  <path d="M435.65 757.85 c-0.10 -0.20 -0.75 -0.20 -1.40 -0.05 -0.65 0.15 -1.70 0 -2.35 -0.35 -0.60 -0.35 -1.25 -0.70 -1.40 -0.75 -0.70 -0.15 -2.35 -0.85 -3 -1.20 -0.40 -0.25 -1.45 -0.85 -2.35 -1.30 -3.20 -1.60 -9.65 -6.70 -9.65 -7.60 0 -0.25 -0.55 -0.90 -1.25 -1.40 -0.70 -0.50 -1.25 -1.10 -1.25 -1.30 0 -0.35 -1.05 -1.80 -2.35 -3.15 -0.35 -0.40 -0.65 -0.80 -0.65 -0.95 0 -0.40 -3.25 -5.55 -3.60 -5.70 -0.25 -0.10 -0.40 -0.40 -0.40 -0.60 0 -0.70 -8 -14.25 -8.55 -14.40 -0.25 -0.10 -0.45 -0.45 -0.45 -0.80 0 -0.35 -0.75 -1.40 -1.60 -2.40 -0.90 -0.95 -2.45 -2.70 -3.35 -3.85 -2.05 -2.50 -9.95 -8.55 -11.15 -8.55 -0.45 0 -1 -0.25 -1.15 -0.50 -0.20 -0.30 -0.50 -0.40 -0.75 -0.25 -0.25 0.15 -0.55 0.05 -0.70 -0.20 -0.15 -0.25 -1.15 -0.60 -2.15 -0.80 -1.05 -0.20 -2.10 -0.50 -2.40 -0.65 -0.25 -0.20 -0.95 -0.40 -1.50 -0.45 -2.50 -0.35 -4 -0.60 -4 -0.65 0 -0.05 -2.30 -0.10 -5.15 -0.15 -2.80 -0.05 -5.10 0.05 -5.10 0.25 0 0.15 -0.40 0.20 -0.95 0.05 -0.50 -0.15 -1.10 0 -1.25 0.30 -0.20 0.30 -1 0.40 -1.80 0.20 -0.90 -0.15 -1.50 -0.05 -1.50 0.25 0 0.25 -0.45 0.40 -1 0.25 -0.60 -0.15 -1 0 -1 0.35 0 0.35 -0.40 0.45 -1 0.25 -0.50 -0.15 -1.50 0 -2.10 0.35 -0.65 0.35 -1.35 0.55 -1.55 0.50 -0.80 -0.20 -5.85 1.50 -5.85 1.95 0 0.30 -0.25 0.35 -0.50 0.20 -0.65 -0.40 -10.50 3.20 -10.50 3.85 0 0.25 -0.20 0.35 -0.50 0.15 -0.60 -0.40 -5.50 1.25 -5.50 1.85 0 0.25 -0.20 0.35 -0.50 0.15 -0.50 -0.30 -5.50 1.20 -5.50 1.70 0 0.15 -0.95 0.35 -2.10 0.35 -1.15 0.05 -2.20 0.35 -2.30 0.65 -0.10 0.30 -0.70 0.40 -1.40 0.25 -0.65 -0.15 -1.20 -0.10 -1.20 0.15 0 0.25 -0.80 0.35 -1.75 0.25 -1.15 -0.15 -1.75 0 -1.75 0.40 0 0.60 -5.55 0.50 -8.75 -0.20 -0.80 -0.15 -2.05 -0.40 -2.75 -0.50 -1.45 -0.25 -3.25 -0.70 -3.25 -0.80 0 -0.05 -0.40 -0.15 -0.90 -0.25 -1.50 -0.30 -7.25 -3.10 -9.60 -4.75 -3.30 -2.30 -9.50 -8.85 -9.50 -10.10 0 -0.20 -0.40 -0.85 -0.90 -1.40 -0.45 -0.55 -0.85 -1.30 -0.85 -1.70 0 -0.40 -0.35 -0.80 -0.75 -1 -0.40 -0.15 -0.70 -0.45 -0.70 -0.65 0.05 -0.20 0 -0.75 -0.20 -1.15 -0.15 -0.40 -0.40 -1.60 -0.60 -2.60 -0.15 -1.05 -0.45 -1.90 -0.65 -1.90 -0.20 0 -0.35 -1.40 -0.30 -3.15 0.10 -7.20 0.45 -11.85 0.85 -11.85 0.25 0 0.35 -0.55 0.25 -1.20 -0.15 -0.80 0 -1.35 0.50 -1.55 0.45 -0.15 0.65 -0.70 0.50 -1.50 -0.15 -0.70 -0.10 -1.25 0.15 -1.25 0.55 0 2.50 -4.50 2.15 -5.05 -0.15 -0.25 0 -0.45 0.30 -0.45 0.30 0 0.45 -0.20 0.30 -0.45 -0.15 -0.25 0.05 -0.60 0.50 -0.75 0.45 -0.20 0.70 -0.65 0.50 -1.05 -0.15 -0.40 -0.05 -0.75 0.20 -0.75 0.65 0 2.15 -3.35 1.75 -3.95 -0.15 -0.30 0.05 -0.55 0.55 -0.55 0.55 0 0.75 -0.30 0.55 -1 -0.15 -0.65 0 -1 0.45 -1 0.40 0 0.70 -0.45 0.70 -0.95 0 -0.55 0.20 -1.05 0.50 -1.15 0.25 -0.05 0.55 -0.75 0.60 -1.50 0.05 -0.80 0.25 -1.40 0.45 -1.40 0.45 0 4.05 -7.55 3.75 -7.85 -0.15 -0.15 0.20 -0.75 0.75 -1.35 0.55 -0.55 0.90 -1.45 0.75 -1.90 -0.10 -0.50 0.05 -0.90 0.35 -0.90 0.30 0 0.40 -0.15 0.20 -0.30 -0.15 -0.15 0.15 -0.75 0.70 -1.35 0.85 -0.95 1.20 -1.90 1 -2.95 0 -0.25 0.15 -0.40 0.35 -0.40 0.50 0 2.45 -4.25 2.70 -5.75 0.10 -0.55 0.45 -1.30 0.80 -1.65 0.35 -0.40 0.50 -0.90 0.35 -1.15 -0.20 -0.25 -0.10 -0.45 0.15 -0.45 0.45 0 2.45 -4.20 2.70 -5.75 0.10 -0.55 0.30 -1.15 0.55 -1.30 0.60 -0.45 2.35 -5.55 2.05 -6 -0.15 -0.25 -0.05 -0.45 0.15 -0.45 0.80 0 5.50 -12.30 4.95 -12.85 -0.15 -0.15 0.10 -0.60 0.50 -1.05 0.45 -0.40 0.65 -1.15 0.55 -1.65 -0.15 -0.50 0.05 -1 0.40 -1.10 0.55 -0.25 2.45 -5.75 2.50 -7.40 0 -0.45 0.30 -1.15 0.55 -1.50 0.80 -0.95 2.85 -7.45 2.55 -7.80 -0.20 -0.15 0.05 -0.60 0.45 -1.05 0.45 -0.40 0.70 -1.25 0.60 -1.85 -0.15 -0.55 0.10 -1.35 0.50 -1.70 0.35 -0.40 0.60 -1.15 0.50 -1.75 -0.15 -0.60 0.10 -1.40 0.50 -1.75 0.35 -0.40 0.60 -1.20 0.45 -1.85 -0.10 -0.65 0 -1.20 0.25 -1.20 0.30 0 0.40 -0.35 0.20 -0.75 -0.15 -0.40 -0.10 -0.75 0.15 -0.75 0.45 0 1 -2.15 1.20 -4.50 0.05 -0.70 0.40 -1.55 0.75 -1.95 0.40 -0.40 0.60 -1.35 0.50 -2.10 -0.15 -0.80 0 -1.50 0.25 -1.60 0.25 -0.05 0.65 -1.15 0.90 -2.35 0.20 -1.25 0.65 -3.35 1 -4.75 0.35 -1.35 0.65 -3.25 0.65 -4.10 0.05 -0.90 0.25 -1.65 0.50 -1.65 0.20 0 0.30 -0.35 0.10 -0.75 -0.15 -0.40 -0.05 -0.75 0.25 -0.75 0.30 0 0.50 -0.60 0.40 -1.35 -0.05 -0.80 0.05 -1.75 0.20 -2.15 0.65 -1.70 1.90 -7.50 1.80 -8.35 -0.10 -0.50 0.15 -1.75 0.50 -2.80 0.35 -1.05 0.50 -2.45 0.35 -3.10 -0.15 -0.65 -0.05 -1.25 0.20 -1.35 0.55 -0.15 1.55 -5.60 1.70 -9.15 0.05 -1.10 0.30 -2.35 0.55 -2.70 0.20 -0.40 0.50 -1.95 0.60 -3.50 0.05 -1.55 0.40 -3.80 0.65 -5 0.30 -1.20 0.55 -3.20 0.50 -4.50 0 -4.75 0.05 -5.75 0.50 -6.55 0.55 -1 1.15 -9.80 1.25 -18.75 0.05 -3.85 0.25 -9.25 0.40 -12 0.20 -2.75 0.45 -9.40 0.65 -14.75 0.15 -5.60 0.50 -9.90 0.80 -10.05 0.30 -0.20 0.45 -1.75 0.35 -3.50 -0.10 -1.75 0 -3.45 0.20 -3.80 0.20 -0.30 0.20 -0.90 0.05 -1.35 -0.15 -0.45 -0.05 -1.15 0.30 -1.55 0.30 -0.40 0.55 -1.70 0.45 -2.85 -0.05 -1.20 0 -2.50 0.15 -2.90 0.20 -0.40 0.60 -2.45 0.90 -4.50 1.25 -8.25 1.55 -9.75 2.55 -14.40 0.60 -2.65 1.25 -5.75 1.55 -6.85 0.25 -1.10 0.50 -2.65 0.55 -3.50 0.05 -0.80 0.40 -1.80 0.75 -2.20 0.40 -0.40 0.60 -1.25 0.45 -1.90 -0.10 -0.60 -0.05 -1.15 0.10 -1.15 0.50 0 2.10 -5.50 1.80 -6.05 -0.20 -0.25 -0.10 -0.45 0.15 -0.45 0.30 0 0.95 -1.40 1.50 -3.15 0.55 -1.70 1.55 -4.55 2.25 -6.35 0.70 -1.80 1.35 -3.70 1.45 -4.25 0.10 -0.55 0.45 -1.30 0.75 -1.65 0.35 -0.35 0.80 -1.25 1 -1.95 0.15 -0.75 1.70 -4.15 3.45 -7.55 1.75 -3.45 3.05 -6.45 2.95 -6.65 -0.15 -0.20 0.05 -0.45 0.45 -0.60 0.80 -0.30 2.90 -4.25 2.55 -4.85 -0.10 -0.20 0.25 -0.50 0.80 -0.65 0.80 -0.20 1 -0.55 0.80 -1.30 -0.15 -0.60 -0.05 -1.05 0.20 -1.05 0.25 0 0.45 -0.35 0.45 -0.75 0 -0.40 0.30 -0.75 0.65 -0.75 0.70 0 2.05 -1.95 1.65 -2.35 -0.15 -0.15 0.30 -0.75 1 -1.30 0.70 -0.50 1.15 -1.30 1 -1.65 -0.15 -0.40 0 -0.70 0.35 -0.70 0.75 0 2.45 -2.70 2 -3.20 -0.15 -0.15 0.05 -0.30 0.50 -0.30 0.45 0 0.85 -0.20 0.85 -0.45 0 -0.20 0.55 -1 1.20 -1.70 0.65 -0.70 1.70 -2 2.35 -2.95 0.65 -0.90 1.70 -2.20 2.30 -2.90 0.65 -0.70 1.15 -1.50 1.15 -1.85 0 -0.35 0.25 -0.65 0.55 -0.65 0.25 0 0.35 -0.20 0.20 -0.50 -0.15 -0.25 0.05 -0.50 0.45 -0.50 0.75 0 4.30 -3.95 4.30 -4.85 0 -0.60 2.35 -2.65 3.10 -2.65 0.30 0 0.45 -0.15 0.25 -0.30 -0.35 -0.40 0.60 -1.40 1.80 -1.85 0.45 -0.15 0.85 -0.65 0.85 -1.10 0 -0.40 0.35 -0.75 0.75 -0.75 0.45 0 1 -0.55 1.25 -1.25 0.25 -0.65 1.20 -1.55 2.10 -1.90 0.90 -0.40 2.90 -2.10 4.40 -3.80 1.50 -1.65 3.15 -3.05 3.60 -3.05 0.45 0 1.60 -0.90 2.45 -2 0.90 -1.10 1.95 -2 2.40 -2 1.05 0 6.55 -4.10 6.25 -4.60 -0.15 -0.25 0.10 -0.40 0.50 -0.40 0.45 0 0.80 -0.20 0.80 -0.50 0 -0.25 0.45 -0.50 1 -0.50 0.55 0 1 -0.30 1 -0.70 0 -0.75 1.05 -1.30 2.55 -1.30 0.50 0 0.95 -0.20 0.95 -0.45 0 -0.25 0.70 -0.70 1.50 -1.05 0.85 -0.35 1.80 -1 2.15 -1.50 0.35 -0.45 1.25 -1 2 -1.20 0.75 -0.15 1.25 -0.55 1.10 -0.80 -0.25 -0.40 1.15 -1.10 2.50 -1.30 1.40 -0.20 4.75 -2.05 4.75 -2.65 0 -0.40 0.35 -0.55 1 -0.40 0.65 0.15 1 0 1 -0.50 0 -0.40 0.40 -0.65 0.90 -0.60 0.45 0.10 2.10 -0.45 3.60 -1.15 1.50 -0.70 3.25 -1.40 3.90 -1.60 0.60 -0.20 0.95 -0.60 0.80 -0.90 -0.20 -0.30 0.05 -0.40 0.75 -0.15 0.75 0.20 1.15 0.05 1.35 -0.50 0.20 -0.45 0.70 -0.75 1.15 -0.70 1.45 0.15 1.95 -0.05 2.85 -0.90 0.45 -0.50 1.30 -0.90 1.90 -0.95 1.70 -0.10 3.80 -0.80 3.80 -1.20 0 -0.20 0.50 -0.40 1.15 -0.40 0.60 0 2.70 -0.45 4.60 -1.05 1.95 -0.60 4.20 -1.30 5 -1.55 0.85 -0.25 3.35 -0.80 5.65 -1.30 2.25 -0.50 4.10 -1.10 4.10 -1.35 0 -0.25 0.60 -0.30 1.35 -0.15 0.85 0.25 1.45 0.15 1.70 -0.25 0.25 -0.45 1.40 -0.65 3.15 -0.60 1.55 0.05 2.90 -0.10 3.05 -0.35 0.10 -0.20 1.85 -0.40 3.85 -0.45 1.95 -0.05 3.85 -0.30 4.20 -0.60 0.35 -0.30 1.05 -0.50 1.55 -0.45 0.50 0.05 1.15 0.05 1.40 0 1.60 -0.40 6.45 -0.55 18.25 -0.60 14.35 0 20.15 0.25 24.60 1.15 1.55 0.30 3.20 0.45 3.65 0.25 0.40 -0.15 1.75 0.05 2.90 0.40 1.15 0.40 3 0.85 4.10 0.95 1.10 0.15 2.45 0.40 3 0.55 0.55 0.15 1.80 0.40 2.75 0.55 2 0.25 5.30 0.95 8.25 1.70 1.85 0.45 2.80 0.70 7.50 2.05 0.95 0.30 2.60 0.75 3.65 1 2.40 0.70 2.65 0.80 3.85 1.25 5.35 2.15 7 2.75 7.35 2.75 0.50 0 3.65 1.40 8.90 3.90 2.05 1 3.85 1.85 4 1.85 0.65 0.10 7.25 3.55 7.40 3.85 0.10 0.25 0.35 0.40 0.60 0.40 0.65 0 7.30 3.85 12 6.95 3.95 2.55 13.95 9.85 14.50 10.55 0.15 0.15 1.40 1.15 2.75 2.25 3.35 2.65 17.60 16.90 19.75 19.75 0.95 1.25 2.05 2.60 2.50 3 0.75 0.75 3.65 4.50 5 6.50 0.40 0.60 1 1.40 1.35 1.75 0.30 0.35 1.70 2.40 3.10 4.55 1.40 2.15 2.75 4.20 3.05 4.55 0.30 0.35 0.75 1.20 1.10 1.90 0.30 0.70 0.70 1.25 0.90 1.25 0.35 0 0.90 1.40 0.80 2.05 -0.05 0.15 0.35 0.65 0.85 1.15 0.45 0.50 0.85 1.20 0.85 1.60 0 0.40 0.25 0.70 0.60 0.70 0.30 0 0.45 0.15 0.25 0.30 -0.15 0.20 0.05 0.65 0.45 1.05 0.40 0.40 0.60 0.90 0.45 1.15 -0.15 0.25 0 0.60 0.25 0.75 0.60 0.35 1.70 2.75 1.60 3.40 -0.05 0.20 0.15 0.35 0.45 0.35 0.25 0 0.35 0.25 0.20 0.50 -0.15 0.30 -0.05 0.50 0.30 0.50 0.35 0 0.50 0.15 0.30 0.30 -0.15 0.20 0.05 0.65 0.45 1.05 0.40 0.40 0.60 0.95 0.45 1.20 -0.20 0.25 -0.05 0.45 0.25 0.45 0.30 0 0.40 0.25 0.25 0.50 -0.15 0.30 -0.10 0.50 0.10 0.50 0.25 0 0.75 0.85 1.10 1.90 0.35 1 0.95 2.60 1.35 3.50 0.45 0.90 0.85 2.10 0.95 2.70 0.15 0.60 0.45 1.30 0.75 1.60 0.25 0.25 0.50 1 0.50 1.65 0 0.65 0.25 1.15 0.55 1.15 0.30 0 0.45 0.35 0.25 0.75 -0.15 0.40 -0.05 0.75 0.25 0.75 0.30 0 0.40 0.20 0.25 0.45 -0.20 0.25 -0.10 0.55 0.20 0.65 0.25 0.05 0.55 0.75 0.60 1.55 0.05 0.75 0.30 1.35 0.55 1.35 0.25 0 0.35 0.35 0.15 0.75 -0.15 0.40 -0.05 0.75 0.25 0.75 0.30 0 0.40 0.20 0.25 0.45 -0.20 0.25 -0.10 0.55 0.20 0.65 0.25 0.05 0.50 0.90 0.60 1.80 0.05 0.85 0.30 1.60 0.55 1.60 0.25 0 0.30 0.55 0.15 1.25 -0.20 0.80 -0.10 1.25 0.25 1.25 0.35 0 0.45 0.15 0.30 0.35 -0.20 0.15 -0.10 0.60 0.20 0.95 0.30 0.40 0.45 1.05 0.25 1.45 -0.15 0.40 -0.05 0.75 0.25 0.75 0.30 0 0.45 0.35 0.25 0.75 -0.15 0.40 0 0.75 0.25 0.75 0.30 0 0.45 0.45 0.30 1 -0.15 0.55 -0.05 1.15 0.25 1.30 0.25 0.15 0.35 0.60 0.20 0.95 -0.15 0.40 -0.05 0.75 0.25 0.85 0.25 0.10 0.50 1.10 0.60 2.25 0.05 1.20 0.30 2.15 0.55 2.15 0.20 0 0.30 0.55 0.20 1.25 -0.15 0.70 -0.05 1.25 0.20 1.25 0.30 0 0.35 0.35 0.20 0.80 -0.20 0.45 -0.05 1.15 0.25 1.50 0.30 0.40 0.45 1.15 0.30 1.70 -0.15 0.55 -0.05 1 0.25 1 0.30 0 0.40 0.45 0.25 1 -0.15 0.55 -0.05 1 0.25 1 0.30 0 0.40 0.85 0.30 2 -0.10 1.10 0 2 0.25 2 0.25 0 0.35 0.35 0.15 0.75 -0.15 0.40 0 0.75 0.30 0.75 0.35 0 0.40 0.80 0.20 2.45 -0.20 1.55 -0.15 2.60 0.20 2.80 0.30 0.20 0.40 0.75 0.25 1.25 -0.15 0.50 -0.05 1.05 0.25 1.25 0.30 0.20 0.50 1.30 0.45 2.45 -0.05 1.10 0.05 2.40 0.20 2.80 0.20 0.40 0.30 1.30 0.35 2 0.05 3.20 0.40 9.55 0.70 12.25 0.15 1.65 0.40 7.60 0.55 13.25 0.35 12.30 0.65 21.10 1 25.50 0.10 1.80 0.25 4.55 0.30 6.15 0.05 1.55 0.25 2.85 0.50 2.85 0.25 0 0.40 1.90 0.40 4.25 -0.05 2.55 0.15 4.50 0.50 4.95 0.30 0.35 0.55 2.10 0.55 3.85 -0.05 1.75 0.10 3.90 0.35 4.70 0.20 0.85 0.35 2.45 0.30 3.65 0 1.15 0.20 2.10 0.45 2.10 0.30 0 0.40 0.35 0.20 0.75 -0.15 0.40 -0.05 0.75 0.25 0.75 0.35 0 0.45 0.65 0.25 1.75 -0.20 1 -0.15 1.75 0.10 1.75 0.50 0 0.60 0.55 0.70 4.15 0.05 1 0.30 1.85 0.50 1.85 0.25 0 0.30 0.45 0.15 1 -0.20 0.60 -0.10 1 0.30 1 0.40 0 0.50 0.65 0.30 2 -0.15 1.10 -0.05 2 0.15 2 0.20 0 0.30 0.45 0.15 1 -0.15 0.60 0 1 0.35 1 0.40 0 0.55 0.55 0.40 1.50 -0.15 0.85 0 1.50 0.25 1.50 0.25 0 0.35 0.45 0.20 1 -0.15 0.55 -0.05 1 0.25 1 0.30 0 0.40 0.65 0.30 1.50 -0.15 0.85 -0.05 1.50 0.20 1.50 0.25 0 0.30 0.45 0.15 1 -0.20 0.60 -0.10 1 0.25 1 0.40 0 0.55 0.55 0.40 1.50 -0.15 0.85 -0.05 1.50 0.20 1.50 0.25 0 0.30 0.25 0.15 0.50 -0.20 0.30 -0.10 0.80 0.15 1.15 0.30 0.35 0.60 1.30 0.75 2.10 0.10 0.85 0.35 1.90 0.55 2.40 0.25 0.45 0.30 1.20 0.15 1.60 -0.20 0.40 -0.10 0.85 0.20 1 0.25 0.20 0.35 0.55 0.15 0.80 -0.15 0.25 -0.05 0.80 0.30 1.20 0.30 0.35 0.50 0.95 0.45 1.35 -0.10 0.35 0.15 1.20 0.50 1.85 0.35 0.60 0.55 1.55 0.40 2.05 -0.15 0.50 0.10 1.40 0.50 2 0.40 0.60 0.65 1.50 0.50 2.05 -0.15 0.50 0 0.95 0.30 0.95 0.30 0 0.35 0.15 0.20 0.35 -0.20 0.15 -0.10 0.60 0.20 0.95 0.30 0.40 0.45 1.05 0.25 1.45 -0.15 0.40 -0.05 0.75 0.25 0.75 0.30 0 0.45 0.30 0.30 0.70 -0.15 0.40 -0.10 0.80 0.15 0.90 0.25 0.10 0.50 0.95 0.60 1.90 0.05 0.95 0.30 1.90 0.50 2.05 0.20 0.15 0.45 0.85 0.50 1.60 0.05 0.75 0.30 1.35 0.55 1.35 0.25 0 0.35 0.45 0.20 1 -0.15 0.55 -0.05 1 0.25 1 0.25 0 0.30 0.25 0.15 0.50 -0.15 0.30 -0.05 0.50 0.30 0.50 0.30 0 0.45 0.40 0.30 0.95 -0.15 0.55 0.10 1.45 0.50 2 0.40 0.60 0.55 1.30 0.40 1.55 -0.15 0.30 -0.05 0.50 0.25 0.50 0.30 0 0.45 0.20 0.25 0.45 -0.15 0.25 0 0.65 0.30 0.80 0.25 0.20 0.40 0.65 0.25 1.05 -0.15 0.35 0.05 1 0.45 1.40 0.40 0.40 0.75 1.30 0.75 2 0 0.70 0.25 1.30 0.55 1.30 0.30 0 0.45 0.40 0.35 0.90 -0.15 0.50 0.05 1.15 0.45 1.50 0.35 0.35 0.65 1.20 0.65 1.85 0 0.65 0.25 1.35 0.55 1.50 0.30 0.20 0.40 0.65 0.25 1 -0.15 0.40 0.10 0.95 0.50 1.30 0.40 0.35 0.65 0.90 0.50 1.20 -0.10 0.35 0.10 1.10 0.50 1.70 0.40 0.55 0.60 1.05 0.35 1.05 -0.20 0 -0.10 0.20 0.20 0.40 0.35 0.20 0.70 0.95 0.75 1.60 0.10 0.70 0.35 1.40 0.60 1.60 0.25 0.15 0.50 0.70 0.55 1.25 0.05 0.50 0.35 1.40 0.65 2 0.35 0.60 0.60 1.40 0.60 1.85 0 0.40 0.25 0.80 0.50 0.90 0.30 0.10 0.60 0.65 0.65 1.30 0 0.60 0.25 1.10 0.50 1.10 0.25 0 0.35 0.30 0.25 0.60 -0.15 0.35 0.10 0.95 0.45 1.35 0.40 0.35 0.60 0.90 0.50 1.25 -0.10 0.30 0.10 0.85 0.50 1.20 0.35 0.35 0.65 1.10 0.65 1.65 0 0.50 0.25 0.95 0.55 0.95 0.30 0 0.45 0.35 0.25 0.75 -0.15 0.40 -0.05 0.75 0.25 0.75 0.30 0 0.35 0.25 0.20 0.50 -0.15 0.30 -0.05 0.50 0.25 0.50 0.35 0 0.50 0.30 0.40 0.60 -0.15 0.35 0.05 0.95 0.45 1.30 0.35 0.35 0.65 1.10 0.65 1.60 0 0.50 0.25 1.10 0.50 1.25 0.30 0.20 0.40 0.55 0.25 0.80 -0.20 0.25 -0.10 0.45 0.10 0.45 0.40 0 1.65 2.75 1.60 3.65 0 0.20 0.35 0.75 0.80 1.20 0.45 0.40 0.70 1 0.60 1.35 -0.10 0.30 0.10 0.85 0.50 1.20 0.35 0.35 0.65 1.10 0.65 1.65 0 0.50 0.20 0.95 0.45 0.95 0.40 0 1.10 1.95 1.05 2.75 0 0.15 0.30 0.65 0.75 1.05 0.40 0.45 0.65 1 0.50 1.25 -0.20 0.25 -0.05 0.45 0.25 0.45 0.30 0 0.40 0.25 0.25 0.50 -0.15 0.30 -0.05 0.50 0.20 0.50 0.30 0 0.55 0.45 0.55 1 0 0.55 0.25 1 0.55 1 0.30 0 0.45 0.30 0.35 0.60 -0.15 0.35 0.05 0.95 0.45 1.30 0.35 0.35 0.65 1.10 0.65 1.65 0 0.50 0.25 0.95 0.55 0.95 0.30 0 0.45 0.30 0.30 0.70 -0.15 0.40 -0.10 0.80 0.15 0.90 0.25 0.10 0.50 0.50 0.60 0.90 0.10 0.40 0.45 1.05 0.80 1.40 0.35 0.40 0.50 0.90 0.35 1.15 -0.20 0.25 -0.10 0.45 0.20 0.45 0.30 0 0.65 0.55 0.85 1.25 0.15 0.70 0.50 1.25 0.70 1.25 0.40 0 1.25 2.45 1.10 3.15 -0.05 0.20 0.15 0.35 0.45 0.35 0.25 0 0.35 0.25 0.20 0.50 -0.15 0.30 -0.05 0.50 0.20 0.50 0.30 0 0.55 0.45 0.55 1 0 0.55 0.25 1 0.50 1 0.30 0 0.50 0.55 0.50 1.25 0 0.70 0.25 1.25 0.55 1.25 0.30 0 0.45 0.45 0.30 1 -0.15 0.55 -0.05 1 0.25 1 0.25 0 0.30 0.25 0.15 0.50 -0.15 0.30 -0.05 0.50 0.30 0.50 0.30 0 0.45 0.40 0.30 1 -0.15 0.55 -0.05 1 0.25 1 0.25 0 0.35 0.20 0.20 0.45 -0.20 0.25 -0.10 0.55 0.20 0.65 0.30 0.10 0.55 1.20 0.60 2.55 0.05 1.30 0.30 2.35 0.50 2.35 0.20 0 0.40 1.90 0.40 4.25 0 2.65 -0.20 4.25 -0.55 4.25 -0.25 0 -0.35 0.20 -0.20 0.50 0.40 0.65 -0.65 4.50 -1.25 4.50 -0.25 0 -0.35 0.35 -0.20 0.75 0.20 0.40 0.05 0.75 -0.25 0.75 -0.30 0 -0.40 0.35 -0.25 0.75 0.20 0.40 -0.05 0.85 -0.45 1.05 -0.45 0.15 -0.65 0.60 -0.50 1 0.15 0.45 -0.05 0.70 -0.65 0.70 -0.45 0 -0.75 0.15 -0.60 0.30 0.60 0.55 -1.05 2.80 -4.30 5.75 -1.80 1.65 -3.20 3.25 -3 3.50 0.15 0.25 -0.20 0.45 -0.75 0.45 -0.60 0 -1.05 0.35 -1.05 0.75 0 0.45 -0.85 1.15 -1.85 1.65 -1.05 0.45 -1.95 1 -2.05 1.25 -0.10 0.20 -0.60 0.35 -1.15 0.35 -0.50 0 -0.95 0.20 -0.95 0.45 0 0.25 -0.85 0.60 -1.85 0.80 -1.05 0.20 -2.05 0.60 -2.20 0.85 -0.20 0.30 -1.30 0.60 -2.45 0.65 -1.15 0.05 -2.25 0.40 -2.45 0.70 -0.20 0.30 -0.75 0.45 -1.20 0.25 -0.50 -0.15 -1.20 -0.05 -1.60 0.30 -0.45 0.40 -1.80 0.50 -4.10 0.30 -1.85 -0.15 -4.20 -0.30 -5.20 -0.30 -1 0 -2.50 -0.25 -3.25 -0.55 -0.80 -0.35 -1.65 -0.55 -1.85 -0.50 -0.20 0 -0.90 -0.20 -1.50 -0.50 -0.60 -0.35 -1.85 -0.80 -2.85 -1.05 -0.95 -0.25 -2.10 -0.50 -2.50 -0.60 -1.55 -0.40 -7.75 -2.45 -8.25 -2.75 -0.25 -0.15 -0.60 -0.30 -0.75 -0.35 -0.15 0 -0.60 -0.20 -1 -0.35 -2.15 -0.95 -10.50 -3.80 -10.50 -3.55 0 0.10 -0.45 0 -1.05 -0.30 -0.55 -0.30 -1.50 -0.70 -2.10 -0.80 -1.60 -0.35 -2.55 -0.60 -2.85 -0.70 -0.15 -0.05 -0.45 -0.10 -0.65 -0.05 -0.20 0.05 -1.05 -0.30 -1.85 -0.70 -0.80 -0.40 -1.80 -0.60 -2.20 -0.45 -0.45 0.15 -1.20 0.15 -1.65 -0.10 -1.35 -0.60 -2.30 -0.65 -10.25 -0.80 -4.10 -0.10 -7.40 0 -7.40 0.25 0 0.25 -0.65 0.30 -1.50 0.10 -1 -0.20 -1.50 -0.15 -1.50 0.25 0 0.30 -0.25 0.40 -0.50 0.25 -0.70 -0.45 -4.15 0.70 -4.60 1.50 -0.25 0.35 -0.85 0.55 -1.40 0.40 -0.55 -0.15 -1 0 -1 0.30 0 0.30 -0.45 0.55 -0.95 0.55 -0.50 0 -1.05 0.30 -1.20 0.70 -0.15 0.40 -1.10 1 -2.05 1.35 -1 0.35 -1.80 0.90 -1.80 1.20 0 0.30 -1.60 2.10 -3.55 4 -2 1.95 -4.45 4.70 -5.55 6.15 -1.05 1.40 -2.15 2.60 -2.40 2.60 -0.25 0 -0.35 0.35 -0.20 0.75 0.20 0.45 0 0.75 -0.50 0.75 -0.45 0 -0.80 0.35 -0.80 0.75 0 1.15 -1.95 4.75 -2.55 4.75 -0.30 0 -0.35 0.25 -0.20 0.50 0.15 0.30 0.05 0.50 -0.20 0.50 -0.30 0 -0.50 0.15 -0.45 0.40 0.25 0.85 -0.70 2.60 -1.40 2.60 -0.40 0 -0.60 0.25 -0.45 0.50 0.15 0.30 0.10 0.50 -0.20 0.50 -0.30 0 -0.40 0.30 -0.25 0.70 0.15 0.40 -0.20 1 -0.75 1.40 -0.60 0.40 -0.90 0.90 -0.70 1.05 0.15 0.20 0.05 0.35 -0.25 0.35 -0.35 0 -0.55 0.15 -0.50 0.40 0.25 0.85 -0.75 2.60 -1.45 2.60 -0.45 0 -0.70 0.15 -0.50 0.30 0.50 0.50 -1 3 -2.45 4.15 -0.75 0.60 -1.20 1.05 -1 1.05 0.20 0 -0.05 0.55 -0.50 1.25 -0.45 0.70 -1.05 1.25 -1.40 1.25 -0.65 0 -3.35 2.75 -4.05 4.20 -0.30 0.60 -1.05 1.10 -1.65 1.20 -0.60 0.10 -1.10 0.40 -1.10 0.65 0 0.25 -0.55 0.70 -1.25 0.95 -0.70 0.25 -1.25 0.70 -1.25 0.95 0 0.25 -2 1.10 -4.50 1.85 -2.45 0.80 -4.50 1.55 -4.50 1.70 0 0.20 -0.65 0.25 -1.50 0.10 -0.80 -0.10 -1.50 0 -1.50 0.30 0 0.60 -9.40 0.25 -11.10 -0.40 -0.25 -0.05 -0.60 -0.20 -0.90 -0.25 -0.25 -0.05 -0.55 -0.15 -0.60 -0.25 -0.10 -0.05 -0.50 -0.15 -0.95 -0.25 -0.85 -0.15 -4.10 -1.65 -6.75 -3.15 -0.85 -0.45 -5.85 -3.90 -11.15 -7.60 -18.30 -12.90 -25.05 -17.25 -26.55 -17.10 -0.15 0 -0.70 -0.25 -1.25 -0.55 -0.55 -0.30 -1.15 -0.55 -1.35 -0.60 -0.15 0 -0.50 -0.15 -0.70 -0.35 -0.20 -0.25 -0.85 -0.40 -1.40 -0.40 -0.60 0 -1.50 -0.35 -2 -0.75 -0.50 -0.40 -1.15 -0.60 -1.35 -0.45 -0.25 0.15 -0.95 0 -1.55 -0.35 -1.20 -0.65 -2.65 -0.80 -9.75 -1.10 -2.55 -0.05 -4.65 0 -4.65 0.15 0 0.15 -0.85 0.30 -1.85 0.30 -1 0 -1.90 0.25 -2.05 0.60 -0.10 0.35 -0.95 0.60 -1.90 0.60 -0.95 0 -1.70 0.20 -1.70 0.40 0 0.50 -4.35 2.10 -5.60 2.10 -0.50 0 -0.90 0.25 -0.90 0.50 0 0.30 -0.45 0.50 -1 0.50 -0.55 0 -1 0.25 -1 0.50 0 0.30 -0.35 0.50 -0.75 0.50 -0.40 0 -0.75 0.25 -0.75 0.50 0 0.30 -0.30 0.50 -0.70 0.50 -0.40 0 -1.40 0.70 -2.20 1.50 -0.85 0.85 -1.90 1.50 -2.35 1.50 -0.45 0 -1.40 0.55 -2.15 1.25 -0.75 0.70 -1.50 1.25 -1.70 1.25 -0.25 0 -1.35 0.90 -2.45 2 -1.15 1.10 -2.40 2 -2.80 2 -0.35 0 -0.80 0.35 -0.95 0.75 -0.20 0.40 -0.60 0.75 -1 0.75 -0.40 0 -0.70 0.25 -0.70 0.50 0 0.30 -0.55 0.75 -1.25 1 -0.70 0.25 -1.25 0.80 -1.25 1.25 0 0.40 -0.15 0.75 -0.40 0.75 -0.20 0 -1.60 1 -3.10 2.25 -1.50 1.25 -3.10 2.25 -3.60 2.25 -0.45 0 -1.45 0.70 -2.25 1.50 -0.75 0.85 -1.80 1.50 -2.25 1.50 -0.50 0 -1.35 0.45 -1.90 1 -0.55 0.55 -1.45 1 -2 1 -0.55 0 -1 0.20 -1 0.45 0 0.25 -0.90 0.55 -2 0.75 -1.10 0.15 -2 0.55 -2 0.80 0 0.30 -0.55 0.40 -1.25 0.20 -0.70 -0.15 -1.25 -0.10 -1.25 0.10 0 0.55 -10.50 0.60 -10.85 0.05z m13.75 -1.55 c2.30 -0.65 10.30 -4.55 11.80 -5.85 0.30 -0.25 1.70 -1.35 3.15 -2.35 1.40 -1.05 3.45 -2.60 4.50 -3.45 1.75 -1.40 5.55 -4.45 9.70 -7.65 8.80 -6.90 15.40 -10.15 27.30 -13.55 3.90 -1.10 17.50 0.35 19.35 2.10 0.30 0.25 0.90 0.45 1.40 0.45 2.05 0 17.45 8.65 20.65 11.65 0.35 0.30 1.75 1.35 3.10 2.25 1.30 0.90 5 3.50 8.15 5.75 12.90 9.20 17.85 11.35 26.25 11.35 8.90 0 15.90 -3.05 22.80 -9.95 3.55 -3.60 9.50 -12.20 13.25 -19.30 3.60 -6.80 8 -12.95 12.45 -17.50 4.30 -4.45 6.90 -6.30 11.40 -8.40 4.70 -2.20 6.65 -2.55 16.35 -2.75 10.50 -0.20 12.50 0.10 23.25 3.45 3.30 1 13.35 4.50 17 5.95 1.50 0.55 8.85 2.70 13.55 3.95 2.85 0.75 11.35 0.65 14.70 -0.15 6.25 -1.55 11.65 -4 14.45 -6.60 0.70 -0.65 1.45 -1.20 1.65 -1.20 0.80 0 6.50 -7.40 7.85 -10.20 2.60 -5.45 2.80 -6.30 2.80 -12.30 -0.05 -8.30 -0.90 -11.05 -8.85 -27.40 -2.40 -5.05 -4.40 -9.25 -4.40 -9.40 0 -0.15 -1.10 -2.65 -2.50 -5.50 -1.35 -2.85 -2.50 -5.30 -2.50 -5.45 0 -0.15 -0.75 -1.90 -1.70 -3.90 -3.60 -7.70 -11.75 -27.80 -14.05 -34.60 -0.70 -2.20 -1.50 -4.45 -1.75 -5 -1.65 -4 -6.90 -20 -8 -24.50 -0.30 -1.35 -0.80 -3.05 -1 -3.75 -0.20 -0.70 -0.70 -2.60 -1.05 -4.25 -0.35 -1.65 -0.85 -3.30 -1.10 -3.60 -0.25 -0.35 -0.35 -0.65 -0.20 -0.65 0.25 0 0.15 -0.45 -1.35 -6.25 -1.15 -4.60 -4.70 -21.35 -5.05 -24.10 -0.10 -0.80 -0.20 -1.40 -0.25 -1.40 -0.05 0 -0.55 -2.70 -1.05 -6 -1.70 -10.80 -1.90 -12.20 -2.20 -15.50 -0.15 -1.35 -0.50 -4.20 -0.80 -6.25 -0.30 -2.05 -0.65 -4.85 -0.75 -6.25 -0.05 -1.35 -0.30 -3.75 -0.45 -5.25 -0.45 -4.15 -0.75 -11.55 -1 -24 -0.10 -6.20 -0.45 -14.50 -0.75 -18.50 -0.90 -12.70 -1.50 -19.65 -2 -23 -0.25 -1.80 -0.70 -5.05 -1 -7.25 -0.55 -3.70 -0.95 -5.95 -2 -11 -0.25 -1.10 -0.70 -3.25 -1 -4.75 -0.80 -3.75 -1.50 -6.35 -4.30 -16.50 -0.70 -2.50 -2.70 -8.30 -3.70 -10.75 -0.20 -0.55 -1.35 -3.45 -2.55 -6.50 -2.45 -6.35 -8.80 -19.40 -11.95 -24.50 -2 -3.30 -6.75 -10.40 -7.60 -11.50 -0.20 -0.25 -1.45 -1.85 -2.65 -3.50 -8.60 -11.35 -16.35 -19.55 -25.75 -27.25 -1.50 -1.25 -2.85 -2.40 -3 -2.55 -0.15 -0.15 -2.60 -2.05 -5.50 -4.15 -2.90 -2.15 -5.65 -4.20 -6.15 -4.60 -0.45 -0.40 -1 -0.70 -1.15 -0.70 -0.15 0 -1.25 -0.70 -2.45 -1.50 -3.60 -2.50 -10.90 -6.65 -15 -8.55 -1.35 -0.65 -2.60 -1.30 -2.75 -1.50 -0.15 -0.15 -1.50 -0.80 -3 -1.40 -1.50 -0.65 -3.85 -1.70 -5.25 -2.30 -5.05 -2.20 -10.75 -4.35 -15.25 -5.70 -1.80 -0.55 -5.15 -1.55 -7.50 -2.30 -4.05 -1.20 -9.85 -2.50 -17 -3.80 -1.80 -0.30 -3.45 -0.60 -3.75 -0.65 -0.60 -0.15 -7.35 -1.05 -12.90 -1.80 -5.20 -0.65 -30.30 -0.65 -36.60 0.05 -4.35 0.45 -11.75 1.40 -17.25 2.20 -3.90 0.55 -19.50 4.50 -22.75 5.75 -0.55 0.20 -1.90 0.65 -3 0.95 -10.45 3.20 -29.15 12.45 -40 19.70 -3.05 2.05 -12.30 8.85 -12.75 9.35 -0.15 0.15 -1.25 1.05 -2.50 2 -5.30 4.10 -18.05 16.85 -22 22 -0.95 1.25 -2.05 2.60 -2.50 3 -0.40 0.40 -1.30 1.55 -2 2.50 -0.65 0.95 -1.40 2 -1.60 2.25 -1.60 1.90 -5.90 8 -5.90 8.30 0 0.20 -0.30 0.70 -0.65 1.05 -0.75 0.80 -3.90 6.10 -7.20 12.15 -2.40 4.40 -3.45 6.60 -5.60 11.40 -0.55 1.30 -1.50 3.35 -2.05 4.60 -0.55 1.25 -1 2.55 -1 2.90 0 0.35 -0.20 0.85 -0.45 1.15 -0.65 0.70 -4.85 13.40 -6.25 18.95 -3.30 13.05 -4.25 17.20 -4.50 19.50 -0.15 1.40 -0.40 3.10 -0.55 3.90 -0.15 0.75 -0.35 1.95 -0.50 2.75 -0.50 2.50 -2.25 17.25 -2.75 22.60 -0.25 2.90 -0.55 6.50 -0.70 8 -0.15 1.50 -0.40 8.90 -0.55 16.45 -0.30 14.15 -0.85 24.60 -1.75 32.05 -0.30 2.35 -0.75 6.55 -1 9.35 -0.25 2.75 -0.80 7.05 -1.20 9.50 -0.40 2.40 -0.85 5.20 -0.95 6.15 -0.25 1.60 -0.95 5.30 -2.35 12.25 -0.30 1.40 -1.10 5.30 -1.80 8.75 -0.70 3.45 -1.50 7.15 -1.75 8.25 -0.25 1.10 -0.65 3 -0.90 4.25 -0.25 1.25 -1.15 4.95 -2.05 8.25 -0.85 3.30 -2 7.60 -2.50 9.50 -1 3.85 -4.20 14.20 -6.30 20.50 -1.35 4.05 -1.80 5.35 -2.65 7.40 -0.30 0.60 -0.85 2.20 -1.30 3.55 -1.25 3.80 -4.25 11.85 -5.30 14.15 -0.50 1.20 -0.95 2.45 -0.95 2.80 0 0.35 -0.20 0.85 -0.40 1.15 -0.25 0.25 -0.75 1.25 -1.10 2.20 -0.35 0.95 -1.55 3.65 -2.60 5.90 -1.05 2.30 -1.90 4.30 -1.90 4.40 0 0.10 -0.70 1.65 -1.50 3.45 -0.85 1.80 -1.50 3.35 -1.50 3.45 0 0.10 -1.90 4.10 -4.20 8.90 -11.60 24.05 -12.60 26.30 -14.05 32.30 -1.40 5.95 -0.65 13.70 1.90 19.10 3.55 7.60 11.45 14.95 18.60 17.35 6.80 2.30 7.45 2.40 14.25 2.35 5.65 0 7.50 -0.25 11.50 -1.35 4.40 -1.20 13.95 -4.35 16.25 -5.35 4.45 -1.95 18.15 -6.10 22.95 -6.95 3.90 -0.70 15.10 -0.70 18.15 0 9.10 2.10 13 4.30 20.45 11.70 3.05 3 7.70 9.55 10.55 14.75 3.10 5.70 8.25 14.10 9.55 15.40 0.30 0.35 0.60 0.85 0.60 1.05 0 0.55 5.45 6.10 7.75 7.85 2.90 2.25 7.30 4.50 10.85 5.65 3.90 1.25 13.25 1.40 17.30 0.35z"/>
  <path d="M485.50 612.70 c-3.25 -1.15 -6.25 -3.55 -9.95 -7.95 -2.75 -3.30 -22.55 -24 -35.30 -37 -3.30 -3.35 -8.05 -8.30 -10.55 -11.05 -2.55 -2.70 -6.35 -6.75 -8.50 -8.95 -4.85 -4.90 -5.85 -6.30 -6.70 -9.40 -1.60 -5.85 1.60 -12.20 7.40 -14.60 2.70 -1.15 7.45 -1.05 10.15 0.20 2.60 1.25 4.10 2.65 12.45 11.55 3.45 3.65 11.05 11.50 16.90 17.45 5.85 5.95 11.95 12.25 13.50 14 5.85 6.55 10.40 11 11.75 11.50 1.95 0.75 4.65 0.70 6.25 -0.15 0.75 -0.40 4.10 -3.50 7.45 -6.90 3.30 -3.40 12.30 -12.50 20 -20.20 7.65 -7.75 23.90 -24.25 36.15 -36.65 40.40 -41.05 47.45 -48 49.40 -48.85 3.30 -1.35 8.30 -0.40 11.55 2.25 4.60 3.75 5.95 10.45 3.10 15.60 -1 1.80 -9.40 10.65 -28.15 29.65 -14.70 14.85 -29.30 29.75 -32.45 33 -3.15 3.25 -11.20 11.50 -17.95 18.30 -6.75 6.80 -15.15 15.35 -18.70 19.05 -17.10 17.75 -26.95 27.55 -28.65 28.50 -2.50 1.40 -6.30 1.65 -9.15 0.65z m6.95 -1.25 c0.85 -0.30 1.55 -0.75 1.55 -1 0 -0.25 0.40 -0.45 0.90 -0.45 0.95 0 14.10 -13.10 14.10 -14.05 0 -0.65 2.30 -2.95 2.95 -2.95 0.65 0 3.80 -3.40 3.80 -4.10 0 -0.30 0.40 -0.70 0.90 -0.85 0.50 -0.20 0.90 -0.55 0.80 -0.80 -0.05 -0.30 0.40 -0.75 1 -1.05 1.45 -0.75 3.05 -2.25 3.05 -2.90 0 -0.30 0.45 -0.85 1 -1.20 0.60 -0.35 0.90 -0.85 0.75 -1.10 -0.15 -0.30 0 -0.50 0.40 -0.50 0.80 0 28.05 -27.45 27.65 -27.85 -0.35 -0.35 0.95 -1.65 1.65 -1.65 0.75 0 7.60 -7.05 7.30 -7.50 -0.10 -0.20 4.15 -4.65 9.50 -9.95 5.35 -5.30 9.65 -9.70 9.60 -9.80 -0.15 -0.35 3.85 -4.25 4.35 -4.25 0.80 0 33.30 -33 33.30 -33.80 0 -0.40 0.30 -0.70 0.65 -0.70 0.85 0 2.60 -3.70 2.15 -4.45 -0.20 -0.30 -0.20 -0.55 0.05 -0.55 0.60 0 0.65 -4.50 0.10 -6.60 -0.25 -1.05 -0.70 -1.90 -0.95 -1.90 -0.30 0 -0.50 -0.30 -0.50 -0.65 0 -0.80 -4.10 -3.95 -5.35 -4.20 -3.65 -0.60 -6.15 -0.70 -6.15 -0.20 0 0.25 -0.80 0.65 -1.75 0.85 -1 0.15 -1.65 0.45 -1.55 0.60 0.15 0.15 -0.20 0.50 -0.85 0.80 -0.60 0.30 -1.30 1.05 -1.60 1.70 -0.25 0.60 -0.70 1.10 -1 1.10 -0.60 0 -4.70 4.25 -5.90 6.15 -0.50 0.75 -1.15 1.35 -1.50 1.35 -0.60 0 -2.35 1.70 -2.35 2.30 0 0.50 -4.20 4.70 -4.70 4.70 -0.30 0 -2.80 2.35 -5.60 5.25 -2.80 2.90 -5 5.25 -4.85 5.25 0.10 0 -8.40 8.55 -18.95 19.05 -10.55 10.50 -19.15 19.25 -19.15 19.45 0 0.75 -6.80 8 -7.55 8 -0.40 0 -0.70 0.35 -0.70 0.75 0 0.40 -0.40 0.75 -0.85 0.75 -0.45 0 -0.65 0.15 -0.45 0.35 0.40 0.45 -3.20 4.15 -4.05 4.15 -0.35 0 -0.65 0.35 -0.65 0.80 0 0.45 -0.45 0.90 -0.95 1.05 -0.55 0.15 -1.05 0.65 -1.20 1.20 -0.15 0.50 -0.65 1.10 -1.20 1.30 -1.25 0.45 -3.15 2.25 -3.15 3.05 0 0.30 -0.35 0.60 -0.75 0.60 -0.40 0 -0.75 0.35 -0.75 0.75 0 0.45 -0.55 1 -1.20 1.25 -0.65 0.25 -1.50 1.10 -1.90 1.85 -0.35 0.75 -1.15 1.60 -1.80 1.90 -0.60 0.25 -1.10 0.80 -1.10 1.15 0 0.40 -0.45 0.80 -1 0.95 -0.55 0.15 -0.85 0.45 -0.70 0.70 0.15 0.25 -0.10 0.45 -0.50 0.45 -0.45 0 -0.80 0.35 -0.80 0.75 0 0.45 -0.50 1 -1.10 1.25 -0.65 0.25 -0.90 0.45 -0.65 0.45 0.65 0.05 -8.90 9.30 -10 9.75 -0.45 0.15 -0.65 0.50 -0.50 0.80 0.20 0.30 -0.30 0.50 -1.20 0.50 -0.85 0 -1.55 0.20 -1.55 0.40 0 0.45 -1.65 0.40 -3.75 -0.15 -1.65 -0.40 -4.50 -2.35 -5.85 -3.95 -2.15 -2.50 -6.75 -7.40 -14.90 -15.75 -4.80 -4.90 -11.35 -11.70 -14.50 -15.05 -17.85 -18.90 -20.25 -20.90 -25.75 -21.25 -1.90 -0.15 -5.30 0.75 -4.95 1.30 0.15 0.25 -0.40 0.55 -1.15 0.75 -1.70 0.40 -2.75 1.15 -2.35 1.75 0.15 0.25 -0.10 0.60 -0.50 0.75 -0.45 0.15 -0.65 0.50 -0.50 0.75 0.15 0.25 0 0.45 -0.30 0.45 -0.30 0 -0.40 0.25 -0.25 0.50 0.15 0.30 0.15 0.50 -0.10 0.50 -0.20 0 -0.30 1.05 -0.20 2.30 0.10 1.60 -0.05 2.45 -0.50 2.75 -0.55 0.35 -0.60 0.60 -0.05 1.45 0.30 0.55 0.60 1.35 0.60 1.75 0 1.35 1.15 2.90 6.05 8 2.65 2.75 6.10 6.45 7.75 8.25 1.60 1.75 6.80 7.15 11.45 12 4.70 4.80 10.65 11 13.25 13.70 2.60 2.75 7 7.25 9.75 10.05 2.75 2.80 6.50 6.75 8.30 8.80 6.40 7.15 10.70 11.25 11.95 11.35 0.25 0.05 0.85 0.20 2.50 0.75 1.35 0.45 3.80 0.35 5.45 -0.20z"/>
  <path d="M439.25 426.80 c-12.40 -3.50 -18.95 -11.10 -21.75 -25.20 -1.45 -7.40 0.45 -18.50 4.35 -25.70 1.55 -2.85 6.75 -7.95 9.65 -9.40 8.25 -4.20 18.90 -4.55 27.35 -0.90 6.60 2.85 12.40 9.95 14.60 17.90 0.35 1.25 0.80 2.85 1.05 3.60 0.55 1.80 0.30 16.50 -0.30 19.40 -1.20 5.40 -5.40 12.25 -9.50 15.55 -2.20 1.75 -6.50 3.95 -7.70 3.95 -0.45 0 -1 0.20 -1.25 0.45 -0.75 0.70 -6.05 1.55 -9.45 1.50 -1.70 0 -4.85 -0.55 -7.05 -1.15z m10.75 -0.90 c0 -0.20 0.65 -0.25 1.40 -0.10 2.40 0.50 13.10 -4.10 12.35 -5.30 -0.15 -0.30 0.15 -0.50 0.65 -0.50 0.55 0 1.60 -0.85 2.40 -1.85 0.75 -1.05 1.55 -2 1.75 -2.15 1.35 -1.05 4.30 -9.35 4.75 -13.50 0.80 -7 0.80 -10.25 0 -12.45 -0.40 -1.25 -0.65 -2.40 -0.50 -2.60 0.10 -0.20 -0.10 -1.25 -0.50 -2.30 -0.40 -1.05 -0.70 -2.25 -0.65 -2.65 0.05 -1.05 -2.70 -7 -3.20 -7 -0.25 0 -0.45 -0.20 -0.45 -0.50 0 -0.55 -1.55 -2.45 -3.75 -4.60 -1.50 -1.45 -7.65 -4.70 -8.45 -4.50 -0.20 0.10 -0.70 -0.10 -1.05 -0.40 -1.30 -1.05 -13.25 -2 -13.25 -1 0 0.40 -0.45 0.50 -1.25 0.30 -1.30 -0.35 -5.25 0.65 -5.25 1.30 0 0.25 -0.45 0.40 -1 0.40 -1.20 0 -3.50 1.05 -3.50 1.60 0 0.20 -0.35 0.40 -0.75 0.40 -0.40 0 -0.75 0.25 -0.75 0.50 0 0.30 -0.25 0.50 -0.55 0.50 -0.70 0 -3.45 2.60 -3.20 3.05 0.15 0.15 -0.40 0.95 -1.10 1.75 -0.75 0.80 -1.30 1.60 -1.25 1.85 0.05 0.20 -0.15 0.35 -0.45 0.35 -0.25 0 -0.35 0.25 -0.20 0.50 0.15 0.30 0.10 0.50 -0.20 0.50 -0.30 0 -0.40 0.35 -0.25 0.75 0.20 0.40 0.05 0.75 -0.30 0.75 -0.30 0 -0.40 0.25 -0.25 0.50 0.15 0.30 0.10 0.50 -0.20 0.50 -0.30 0 -0.40 0.35 -0.25 0.75 0.20 0.40 0.05 0.75 -0.25 0.75 -0.30 0 -0.40 0.35 -0.25 0.75 0.20 0.40 0.10 0.75 -0.20 0.75 -0.30 0 -0.40 0.45 -0.25 1 0.15 0.60 0 1 -0.35 1 -0.35 0 -0.50 0.35 -0.30 0.75 0.15 0.40 0.05 0.75 -0.20 0.75 -0.25 0 -0.30 0.75 -0.15 1.70 0.15 0.90 0.05 1.80 -0.15 1.95 -0.40 0.20 -0.40 2.55 -0.05 11 0.05 1 0.30 1.85 0.55 1.85 0.20 0 0.30 0.35 0.15 0.75 -0.20 0.40 -0.10 0.85 0.20 1.05 0.30 0.15 0.40 0.65 0.25 1.05 -0.15 0.40 0.05 1.05 0.50 1.50 0.40 0.45 0.65 1.10 0.50 1.45 -0.15 0.40 -0.05 0.70 0.25 0.70 0.30 0 0.40 0.20 0.25 0.45 -0.20 0.25 -0.15 0.55 0.05 0.65 0.25 0.05 0.95 1.30 1.65 2.65 0.70 1.40 2.50 3.75 4 5.25 2.50 2.45 3.85 3.30 9 5.75 3.25 1.55 14 2.80 14 1.65z"/>
  <path d="M570 426.85 c-10.35 -3.10 -17.95 -11.75 -20.30 -23.15 -1.10 -5.30 -0.75 -15.30 0.65 -19.45 1.45 -4.20 2.80 -7.25 3.25 -7.25 0.25 0 0.40 -0.30 0.40 -0.60 0 -0.35 0.35 -1.10 0.75 -1.60 0.55 -0.75 0.90 -0.85 1.30 -0.45 0.45 0.45 0.20 0.95 -0.85 2 -0.80 0.75 -1.35 1.65 -1.30 1.95 0.05 0.35 -0.20 0.70 -0.65 0.85 -0.40 0.20 -0.60 0.65 -0.45 1.10 0.15 0.40 0.05 0.75 -0.30 0.75 -0.30 0 -0.40 0.25 -0.25 0.50 0.15 0.30 0.05 0.50 -0.25 0.50 -0.35 0 -0.45 0.40 -0.25 1 0.20 0.60 0.10 1 -0.25 1 -0.30 0 -0.40 0.25 -0.25 0.50 0.15 0.30 0.10 0.50 -0.20 0.50 -0.30 0 -0.35 0.75 -0.20 1.75 0.20 1.20 0.10 1.75 -0.30 1.75 -0.40 0 -0.50 0.40 -0.30 1 0.15 0.55 0.10 1 -0.10 1 -0.45 0 -0.45 8.40 0 8.85 0.15 0.15 0.15 0.55 0.05 0.90 -0.15 0.35 -0.05 0.80 0.25 1 0.30 0.15 0.55 1.20 0.55 2.25 0 1.05 0.25 2.10 0.55 2.30 0.30 0.15 0.45 0.75 0.30 1.25 -0.15 0.55 -0.05 0.95 0.25 0.95 0.25 0 0.30 0.25 0.15 0.50 -0.15 0.30 -0.05 0.50 0.20 0.50 0.30 0 0.55 0.45 0.55 1 0 0.55 0.15 1 0.40 1 0.20 0 0.75 0.90 1.20 1.95 1.25 2.85 7.15 8.70 10.35 10.30 3.40 1.70 6.70 2.65 9.30 2.70 1.10 0 2.85 0.15 3.90 0.35 1.20 0.20 1.85 0.10 1.85 -0.25 0 -0.35 0.50 -0.55 1.15 -0.45 1.70 0.20 5.85 -0.60 5.85 -1.15 0 -0.25 0.60 -0.45 1.40 -0.45 0.75 0 2.35 -0.70 3.55 -1.50 1.20 -0.85 2.40 -1.50 2.65 -1.50 0.20 0 0.40 -0.45 0.40 -1 0 -0.60 0.35 -1 0.80 -1 1 0 2.80 -1.95 2.40 -2.55 -0.15 -0.25 0.10 -0.45 0.50 -0.45 0.60 0 1.65 -1.90 1.35 -2.40 -0.05 -0.10 0.25 -0.45 0.75 -0.80 0.45 -0.35 0.70 -0.90 0.50 -1.20 -0.15 -0.25 -0.10 -0.60 0.15 -0.70 0.25 -0.05 0.55 -0.50 0.65 -0.90 0.10 -0.40 0.35 -0.90 0.55 -1.05 0.25 -0.20 0.50 -0.90 0.50 -1.65 0.05 -0.70 0.30 -1.30 0.55 -1.30 0.20 0 0.30 -0.45 0.15 -1 -0.15 -0.50 0 -1.05 0.35 -1.15 0.65 -0.20 1.10 -14.40 0.50 -15.75 -0.20 -0.50 -0.35 -1 -0.30 -1.20 0.15 -0.80 -1.55 -5.55 -3.10 -8.65 -3.25 -6.45 -9.15 -11.15 -16.40 -13.05 -0.25 -0.05 -0.45 -0.10 -0.50 -0.20 -0.70 -0.50 -10.90 -1.05 -10.90 -0.55 0 0.20 -1.05 0.35 -2.35 0.35 -1.35 -0.05 -2.40 0.20 -2.50 0.55 -0.10 0.30 -1.55 0.95 -3.20 1.45 -1.60 0.50 -2.95 1.15 -2.95 1.50 0 0.35 -0.45 0.75 -1 0.95 -1.30 0.40 -4 3.15 -4 4.05 0 0.40 -0.35 0.70 -0.75 0.70 -1 0 -0.95 -0.30 0.30 -2.05 1.35 -1.90 5.85 -5.25 8.85 -6.60 10.55 -4.65 23.75 -2.20 31.95 5.95 3.45 3.50 6.75 9.50 7.65 14.20 0.30 1.50 0.80 3.45 1.05 4.30 0.60 1.95 0.60 8.30 0 10.65 -0.25 1 -0.70 3.05 -1 4.55 -0.70 3.50 -4.55 11.25 -6.65 13.50 -3.65 3.85 -7.90 6.70 -11.15 7.55 -0.80 0.20 -2.80 0.70 -4.40 1.15 -4 1.10 -8.85 0.95 -13.35 -0.35z"/>
  <path d="M351 304.70 c0 -0.30 1.60 -2.45 4.25 -5.70 6.80 -8.35 23.15 -24 31.50 -30.15 1.40 -1 2.75 -2.05 3.05 -2.30 0.95 -0.75 12.75 -8.55 13 -8.55 0.10 0 1.85 -1 3.85 -2.20 8.50 -5.20 24.05 -12.05 36.95 -16.35 5.10 -1.70 16.85 -4.75 21.90 -5.70 0.95 -0.20 2.75 -0.55 4 -0.80 9.75 -2.10 26.50 -3.65 26.50 -2.45 0 0.45 -0.95 0.55 -3.75 0.40 -2.05 -0.15 -3.90 -0.05 -4.15 0.20 -0.25 0.25 -2.15 0.55 -4.15 0.60 -2.05 0.05 -4 0.25 -4.30 0.45 -0.35 0.25 -0.85 0.25 -1.15 0.10 -0.55 -0.35 -6.50 0.80 -6.50 1.25 0 0.20 -1.05 0.35 -2.30 0.35 -1.25 0 -2.45 0.25 -2.65 0.60 -0.20 0.30 -0.70 0.45 -1.15 0.30 -0.40 -0.15 -1.40 0 -2.20 0.30 -0.80 0.35 -2.20 0.65 -3.10 0.70 -0.95 0.05 -1.85 0.30 -2 0.55 -0.20 0.25 -1.25 0.50 -2.30 0.55 -1.10 0.05 -2.10 0.25 -2.25 0.50 -0.15 0.20 -1.10 0.45 -2.05 0.55 -0.95 0.05 -1.85 0.35 -1.90 0.60 -0.10 0.30 -0.40 0.40 -0.65 0.25 -0.55 -0.35 -5.95 1.30 -5.95 1.80 0 0.20 -0.40 0.25 -0.95 0.10 -0.50 -0.10 -1.25 0.15 -1.70 0.55 -0.40 0.45 -1.35 0.80 -2.05 0.80 -0.70 0 -1.30 0.20 -1.30 0.45 0 0.25 -0.90 0.55 -1.95 0.75 -1.10 0.15 -2.30 0.65 -2.75 1.05 -0.40 0.40 -1.20 0.75 -1.75 0.75 -0.60 0 -1.05 0.20 -1.05 0.50 0 0.25 -0.90 0.65 -1.95 0.80 -1.10 0.20 -2.10 0.65 -2.25 1 -0.15 0.40 -0.95 0.70 -1.80 0.70 -0.90 0 -1.85 0.40 -2.35 1 -0.50 0.55 -1.35 1 -1.95 1 -0.60 0 -1.20 0.30 -1.35 0.70 -0.15 0.35 -1.25 0.90 -2.50 1.20 -1.25 0.35 -2.35 0.95 -2.55 1.35 -0.15 0.40 -0.85 0.75 -1.55 0.75 -0.70 0 -1.65 0.45 -2.10 1 -0.50 0.55 -1.30 1 -1.80 1 -0.50 0 -0.80 0.20 -0.65 0.45 0.25 0.40 -1.10 1.10 -3.55 1.80 -0.65 0.15 -1.15 0.50 -1.15 0.75 0 0.20 -0.55 0.55 -1.25 0.70 -0.70 0.20 -1.25 0.60 -1.25 0.95 0 0.80 -7 5.35 -8.20 5.35 -0.45 0 -0.80 0.35 -0.80 0.75 0 0.40 -0.90 1.15 -2 1.60 -1.10 0.50 -2 1.20 -2 1.55 0 0.35 -1.05 1.10 -2.30 1.60 -1.30 0.60 -2.40 1.40 -2.55 1.95 -0.15 0.55 -0.80 1.10 -1.50 1.30 -0.70 0.15 -1.15 0.45 -1 0.60 0.30 0.25 -2.25 2.65 -2.85 2.65 -0.45 0 -2.30 1.70 -2.30 2.10 0 0.85 -3.20 3.90 -4.10 3.90 -0.50 0 -0.85 0.25 -0.80 0.60 0.10 0.30 -0.40 0.85 -1.10 1.25 -0.70 0.35 -1.20 0.85 -1.15 1.15 0.15 0.50 -2.35 3.20 -5.70 6.05 -1.15 1 -2 1.95 -1.85 2.10 0.15 0.15 -0.20 0.40 -0.75 0.60 -0.60 0.15 -1.05 0.55 -1.05 0.80 0 0.55 -0.60 1.35 -2.50 3.35 -0.70 0.75 -1.25 1.55 -1.25 1.75 0 0.20 -0.25 0.55 -0.55 0.75 -0.30 0.20 -0.70 0.85 -0.90 1.50 -0.30 0.95 -1.80 1.65 -1.80 0.80z"/>
 </g>
</svg>